<svg width="24" height="25" viewBox="0 0 24 25" fill="none" xmlns="http://www.w3.org/2000/svg">
<g clip-path="url(#clip0_2990_20835)">
<path d="M20.01 15.7023C18.78 15.7023 17.59 15.5023 16.48 15.1423C16.13 15.0223 15.74 15.1123 15.47 15.3823L13.9 17.3523C11.07 16.0023 8.42 13.4523 7.01 10.5223L8.96 8.86227C9.23 8.58227 9.31 8.19227 9.2 7.84227C8.83 6.73227 8.64 5.54227 8.64 4.31227C8.64 3.77227 8.19 3.32227 7.65 3.32227H4.19C3.65 3.32227 3 3.56227 3 4.31227C3 13.6023 10.73 21.3223 20.01 21.3223C20.72 21.3223 21 20.6923 21 20.1423V16.6923C21 16.1523 20.55 15.7023 20.01 15.7023Z" fill="#F8F8F8"/>
</g>
<defs>
<clipPath id="clip0_2990_20835">
<rect width="24" height="23.9443" fill="white" transform="translate(0 0.322266)"/>
</clipPath>
</defs>
</svg>
