<svg width="38" height="40" viewBox="0 0 38 40" fill="none" xmlns="http://www.w3.org/2000/svg">
<path d="M16.1362 24.4C16.285 24.55 16.4619 24.669 16.6569 24.7502C16.8519 24.8315 17.061 24.8733 17.2722 24.8733C17.4835 24.8733 17.6926 24.8315 17.8876 24.7502C18.0825 24.669 18.2595 24.55 18.4082 24.4L24.9362 17.872C25.2375 17.5707 25.4068 17.1621 25.4068 16.736C25.4068 16.3099 25.2375 15.9013 24.9362 15.6C24.635 15.2987 24.2263 15.1295 23.8002 15.1295C23.3742 15.1295 22.9655 15.2987 22.6642 15.6L17.2722 21.008L15.3362 19.056C15.035 18.7547 14.6263 18.5855 14.2002 18.5855C13.7742 18.5855 13.3655 18.7547 13.0642 19.056C12.763 19.3573 12.5937 19.7659 12.5937 20.192C12.5937 20.6181 12.763 21.0267 13.0642 21.328L16.1362 24.4ZM33.4002 4H4.60024C4.1759 4 3.76893 4.16857 3.46887 4.46863C3.16882 4.76869 3.00024 5.17565 3.00024 5.6V34.4C3.00024 34.8243 3.16882 35.2313 3.46887 35.5314C3.76893 35.8314 4.1759 36 4.60024 36H33.4002C33.8246 36 34.2316 35.8314 34.5316 35.5314C34.8317 35.2313 35.0002 34.8243 35.0002 34.4V5.6C35.0002 5.17565 34.8317 4.76869 34.5316 4.46863C34.2316 4.16857 33.8246 4 33.4002 4ZM31.8002 32.8H6.20024V7.2H31.8002V32.8Z" fill="#444B59"/>
</svg>
