<svg width="38" height="40" viewBox="0 0 38 40" fill="none" xmlns="http://www.w3.org/2000/svg">
<path d="M33.4002 4H4.60024C4.1759 4 3.76893 4.16857 3.46887 4.46863C3.16882 4.76869 3.00024 5.17565 3.00024 5.6V34.4C3.00024 34.8243 3.16882 35.2313 3.46887 35.5314C3.76893 35.8314 4.1759 36 4.60024 36H33.4002C33.8246 36 34.2316 35.8314 34.5316 35.5314C34.8317 35.2313 35.0002 34.8243 35.0002 34.4V5.6C35.0002 5.17565 34.8317 4.76869 34.5316 4.46863C34.2316 4.16857 33.8246 4 33.4002 4ZM31.8002 32.8H6.20024V7.2H31.8002V32.8Z" fill="#444B59"/>
</svg>
