<svg width="60" height="60" viewBox="0 0 60 60" fill="none" xmlns="http://www.w3.org/2000/svg">
<path d="M0 8C0 3.58172 3.58172 0 8 0H52C56.4183 0 60 3.58172 60 8V52C60 56.4183 56.4183 60 52 60H8C3.58172 60 0 56.4183 0 52V8Z" fill="#4EAA40"/>
<path d="M43.295 36.0089C41.1767 36.0089 39.1272 35.6533 37.2156 35.0133C36.6128 34.8 35.9411 34.96 35.4761 35.44L32.7722 38.9422C27.8983 36.5422 23.3344 32.0089 20.9061 26.8L24.2644 23.8489C24.7294 23.3511 24.8672 22.6578 24.6778 22.0356C24.0406 20.0622 23.7133 17.9467 23.7133 15.76C23.7133 14.8 22.9383 14 22.0083 14H16.0494C15.1194 14 14 14.4267 14 15.76C14 32.2756 27.3128 46 43.295 46C44.5178 46 45 44.88 45 43.9022V37.7689C45 36.8089 44.225 36.0089 43.295 36.0089Z" fill="#F3FFF4"/>
</svg>
