<svg width="8" height="8" viewBox="0 0 8 8" fill="none" xmlns="http://www.w3.org/2000/svg">
<path fill-rule="evenodd" clip-rule="evenodd" d="M2.58625 3.9995L0.29325 1.7065C-0.09775 1.3165 -0.09775 0.6825 0.29325 0.2925C0.68325 -0.0975 1.31725 -0.0975 1.70725 0.2925L4.00025 2.5855L6.29325 0.2925C6.68325 -0.0975 7.31725 -0.0975 7.70725 0.2925C8.09725 0.6825 8.09725 1.3165 7.70725 1.7065L5.41425 3.9995L7.70725 6.2925C8.09725 6.6825 8.09725 7.3165 7.70725 7.7065C7.31725 8.0965 6.68325 8.0965 6.29325 7.7065L4.00025 5.4135L1.70725 7.7065C1.31725 8.0965 0.68325 8.0965 0.29325 7.7065C-0.09775 7.3165 -0.09775 6.6825 0.29325 6.2925L2.58625 3.9995Z" fill="#444B59"/>
</svg>
