<svg width="125" height="125" viewBox="0 0 125 125" fill="none" xmlns="http://www.w3.org/2000/svg">
<circle cx="62.5" cy="62.5" r="60" stroke="#444B59" stroke-width="5"/>
<path d="M37.577 22C34.175 22 31.3462 24.8288 31.3462 28.2308V87.4231C31.3462 90.8251 34.175 93.6538 37.577 93.6538H43.8077V103L53.1539 96.7692L62.5 103V80.7063C62.0701 80.9542 61.612 81.1498 61.1355 81.2889C60.8021 82.0075 60.3295 82.6529 59.745 83.1876C59.1605 83.7224 58.4758 84.1359 57.7304 84.4043C57.0712 84.6195 56.3797 84.7186 55.6867 84.6971C54.8144 84.6971 53.9421 84.585 53.1539 84.2111C52.3562 84.5593 51.491 84.7253 50.6211 84.6971C49.9232 84.6971 49.241 84.6442 48.5774 84.4043C47.0739 83.8575 45.8484 82.7373 45.1692 81.2889C44.694 81.149 44.237 80.9535 43.8077 80.7063V87.4231H37.577V28.2308H87.4231V87.4231H71.8462C71.0199 87.4231 70.2275 87.7513 69.6433 88.3355C69.059 88.9198 68.7308 89.7122 68.7308 90.5385C68.7308 91.3647 69.059 92.1571 69.6433 92.7414C70.2275 93.3256 71.0199 93.6538 71.8462 93.6538H87.4231C90.8251 93.6538 93.6539 90.8251 93.6539 87.4231V28.2308C93.6539 24.8288 90.8251 22 87.4231 22H37.577ZM46.3405 37.5769C45.5143 37.6542 44.7526 38.0565 44.2229 38.6954C43.6933 39.3342 43.4392 40.1573 43.5164 40.9836C43.5937 41.8098 43.996 42.5716 44.6349 43.1012C45.2738 43.6308 46.0969 43.8849 46.9231 43.8077H78.077C78.9032 43.8077 79.6956 43.4795 80.2799 42.8952C80.8641 42.311 81.1923 41.5186 81.1923 40.6923C81.1923 39.8661 80.8641 39.0736 80.2799 38.4894C79.6956 37.9052 78.9032 37.5769 78.077 37.5769H46.9231C46.8256 37.5723 46.7278 37.5723 46.6303 37.5769C46.5337 37.5724 46.4371 37.5724 46.3405 37.5769ZM46.3405 50.0385C45.5143 50.1157 44.7526 50.518 44.2229 51.1569C43.6933 51.7958 43.4392 52.6189 43.5164 53.4451C43.5937 54.2714 43.996 55.0331 44.6349 55.5627C45.2738 56.0923 46.0969 56.3465 46.9231 56.2692H68.7308C69.5571 56.2692 70.3495 55.941 70.9337 55.3568C71.518 54.7725 71.8462 53.9801 71.8462 53.1538C71.8462 52.3276 71.518 51.5352 70.9337 50.9509C70.3495 50.3667 69.5571 50.0385 68.7308 50.0385H46.9231C46.8256 50.0339 46.7278 50.0339 46.6303 50.0385C46.5337 50.034 46.4371 50.034 46.3405 50.0385ZM53.1539 61.4283C52.5283 61.429 51.9188 61.6268 51.4121 61.9937C50.9054 62.3606 50.5272 62.8779 50.3313 63.472C50.2036 63.5156 50.0634 63.5218 49.9419 63.5717C49.4154 63.2553 48.8024 63.1133 48.1904 63.1658C47.5783 63.2184 46.9985 63.463 46.5337 63.8645C46.0631 64.2574 45.7261 64.7868 45.5693 65.3794C45.4124 65.9721 45.4435 66.5988 45.6583 67.1731C45.5742 67.3008 45.5399 67.4285 45.462 67.5625C44.8534 67.6639 44.2918 67.9529 43.8555 68.3891C43.4193 68.8254 43.1303 69.3871 43.0289 69.9956C42.9288 70.5882 43.0158 71.1973 43.2776 71.7382C43.5394 72.2792 43.9632 72.7252 44.49 73.0144C44.5118 73.2107 44.4495 73.4101 44.49 73.6001C44.1139 74.0581 43.8847 74.6188 43.8324 75.2091C43.7802 75.7994 43.9073 76.3918 44.1972 76.9087C44.8015 77.9585 46.0041 78.5442 47.216 78.3698C47.3717 78.5162 47.5306 78.6252 47.702 78.7592C47.7331 79.9648 48.5026 81.0646 49.6491 81.4852C50.7831 81.8995 52.0666 81.5007 52.861 80.6066C52.9763 80.6128 53.0355 80.7063 53.1539 80.7063C53.2816 80.7063 53.4156 80.6128 53.5433 80.6066C53.8123 80.9103 54.1421 81.154 54.5113 81.322C54.8806 81.49 55.281 81.5785 55.6867 81.5817C56.0232 81.5817 56.3285 81.6035 56.6587 81.4852C57.219 81.2781 57.7041 80.9075 58.0513 80.4215C58.3985 79.9354 58.5917 79.3563 58.6058 78.7592C58.7709 78.6283 58.9329 78.5162 59.0918 78.3698C59.6832 78.4537 60.2862 78.3595 60.8239 78.0993C61.3616 77.8391 61.8095 77.4245 62.1106 76.9087C62.4011 76.3914 62.5286 75.7985 62.4764 75.2075C62.4241 74.6166 62.1946 74.0552 61.8178 73.597C61.8614 73.4101 61.7897 73.2045 61.8178 73.0144C62.3465 72.7273 62.7719 72.2817 63.034 71.7401C63.2961 71.1985 63.3818 70.5884 63.2789 69.9956C63.178 69.3869 62.8891 68.825 62.4528 68.3886C62.0164 67.9523 61.4545 67.6634 60.8458 67.5625C60.771 67.4254 60.7336 67.3039 60.6495 67.1731C60.8659 66.5986 60.8978 65.9709 60.7409 65.3774C60.584 64.7838 60.2461 64.254 59.7741 63.8614C59.3091 63.4599 58.7291 63.2156 58.117 63.1636C57.5048 63.1116 56.8919 63.2544 56.3658 63.5717C56.2412 63.5218 56.1042 63.5156 55.9764 63.4751C55.7811 62.8804 55.4031 62.3624 54.8964 61.9949C54.3896 61.6275 53.7799 61.4292 53.1539 61.4283ZM53.1539 66.8802C55.9141 66.8802 58.1198 69.0859 58.1198 71.8462C58.1198 74.6126 55.9172 76.8121 53.1539 76.8121C52.5007 76.8158 51.8533 76.6899 51.2491 76.4416C50.6449 76.1934 50.096 75.8278 49.6342 75.3659C49.1723 74.904 48.8066 74.3551 48.5584 73.7509C48.3102 73.1467 48.1842 72.4993 48.188 71.8462C48.188 69.0828 50.3937 66.8802 53.1539 66.8802Z" fill="#4EAA40"/>
</svg>
