<svg width="125" height="125" viewBox="0 0 125 125" fill="none" xmlns="http://www.w3.org/2000/svg">
<circle cx="62.5" cy="62.5" r="60" stroke="#444B59" stroke-width="5"/>
<g clip-path="url(#clip0_2003_76131)">
<path d="M67.88 34.3234C66.0421 33.4526 64.0338 33.001 62 33.001C59.9663 33.001 57.9579 33.4526 56.12 34.3234L22.002 50.4864C21.3741 50.7826 20.8484 51.2589 20.4919 51.8547C20.1354 52.4506 19.9642 53.139 20 53.8324V54.0144V75.0144C20 75.9426 20.3688 76.8329 21.0251 77.4892C21.6815 78.1456 22.5718 78.5144 23.5 78.5144C24.4283 78.5144 25.3185 78.1456 25.9749 77.4892C26.6313 76.8329 27 75.9426 27 75.0144V59.2924L34 62.7644V82.0144C34.0001 82.4748 34.0911 82.9307 34.2676 83.3559C34.4442 83.7811 34.7029 84.1673 35.029 84.4924L35.204 84.6604L35.624 85.0454C37.8179 87.0004 40.1895 88.7463 42.708 90.2604C47.384 93.0744 54.139 96.0144 62 96.0144C69.861 96.0144 76.616 93.0744 81.299 90.2604C83.8176 88.7464 86.1892 87.0004 88.383 85.0454L88.803 84.6604L88.964 84.4924H88.978C89.3037 84.1659 89.5616 83.7783 89.737 83.3518C89.9124 82.9254 90.0018 82.4685 90 82.0074V62.7574L102.054 56.7794C102.643 56.4875 103.138 56.0356 103.483 55.4754C103.827 54.9152 104.006 54.2693 104.001 53.6118C103.995 52.9543 103.804 52.3117 103.45 51.7577C103.095 51.2037 102.592 50.7607 101.998 50.4794L67.88 34.3164V34.3234ZM68.104 73.6284L83 66.2364V80.4604C81.3395 81.8688 79.5674 83.1399 77.701 84.2614C73.641 86.6974 68.139 89.0144 62 89.0144C55.861 89.0144 50.366 86.7044 46.299 84.2614C44.4327 83.1399 42.6605 81.8688 41 80.4604V66.2364L55.896 73.6284C59.746 75.5324 64.254 75.5324 68.104 73.6284ZM64.884 40.6514L92.478 53.7204L64.989 67.3564C64.0598 67.8166 63.0369 68.0561 62 68.0561C60.9631 68.0561 59.9402 67.8166 59.011 67.3564L31.522 53.7204L59.116 40.6514C60.0174 40.2241 61.0025 40.0025 62 40.0025C62.9975 40.0025 63.9826 40.2241 64.884 40.6514ZM35.043 84.5064L35.036 84.4994L35.043 84.5064Z" fill="#4EAA40"/>
</g>
<defs>
<clipPath id="clip0_2003_76131">
<rect width="84" height="84" fill="white" transform="translate(20 19)"/>
</clipPath>
</defs>
</svg>
