<svg width="125" height="125" viewBox="0 0 125 125" fill="none" xmlns="http://www.w3.org/2000/svg">
<circle cx="62.5" cy="62.5" r="60" stroke="#444B59" stroke-width="5"/>
<path d="M88.4688 53.2508C88.4715 48.8525 87.3684 44.5242 85.2609 40.6637C83.1534 36.8033 80.1091 33.5346 76.408 31.1584C72.707 28.7821 68.4678 27.3745 64.0805 27.065C59.6931 26.7555 55.2984 27.5541 51.3003 29.3872C47.3023 31.2203 43.8293 34.0292 41.2007 37.5555C38.5721 41.0819 36.8723 45.2125 36.2575 49.5676C35.6428 53.9227 36.1328 58.3624 37.6827 62.4786C39.2325 66.5947 41.7923 70.2552 45.1267 73.1233V94.3133C45.1268 94.8966 45.2759 95.4702 45.56 95.9796C45.844 96.489 46.2536 96.9174 46.7498 97.224C47.2459 97.5306 47.8123 97.7053 48.3949 97.7315C48.9776 97.7577 49.5573 97.6345 50.079 97.3736L62.2341 91.2952L74.3932 97.3739C74.9149 97.6348 75.4946 97.7579 76.0773 97.7318C76.66 97.7055 77.2263 97.5308 77.7225 97.2242C78.2187 96.9175 78.6283 96.4891 78.9123 95.9797C79.1964 95.4702 79.3455 94.8966 79.3455 94.3133V73.1205C82.2082 70.6616 84.5056 67.613 86.0803 64.1835C87.655 60.754 88.4698 57.0246 88.4688 53.2508ZM42.8438 53.2508C42.8438 49.4157 43.981 45.6667 46.1117 42.4779C48.2423 39.2892 51.2707 36.8038 54.8139 35.3362C58.3571 33.8686 62.2559 33.4846 66.0173 34.2327C69.7787 34.9809 73.2338 36.8277 75.9456 39.5395C78.6574 42.2514 80.5042 45.7065 81.2524 49.4679C82.0006 53.2293 81.6166 57.1281 80.149 60.6713C78.6813 64.2144 76.196 67.2428 73.0072 69.3735C69.8185 71.5042 66.0695 72.6414 62.2344 72.6414C57.0934 72.6356 52.1647 70.5908 48.5296 66.9556C44.8944 63.3204 42.8496 58.3917 42.8438 53.2508ZM72.5017 88.777L63.764 84.409C63.2888 84.1713 62.7649 84.0476 62.2337 84.0476C61.7024 84.0476 61.1785 84.1713 60.7034 84.409L51.9705 88.7764V77.3933C55.2168 78.7741 58.7084 79.4857 62.2362 79.4854C65.764 79.4852 69.2555 78.7731 72.5017 77.3918V88.777ZM62.2361 68.0789C65.1688 68.0789 68.0357 67.2093 70.4742 65.5799C72.9126 63.9506 74.8132 61.6348 75.9355 58.9253C77.0578 56.2158 77.3514 53.2343 76.7793 50.358C76.2071 47.4816 74.7949 44.8395 72.7211 42.7657C70.6474 40.692 68.0053 39.2797 65.1289 38.7076C62.2525 38.1354 59.2711 38.4291 56.5616 39.5514C53.8521 40.6737 51.5363 42.5743 49.907 45.0127C48.2776 47.4512 47.408 50.3181 47.408 53.2508C47.4124 57.1821 48.9761 60.9511 51.7559 63.7309C54.5358 66.5108 58.3048 68.0745 62.2361 68.0789ZM62.2361 45.2664C63.8152 45.2664 65.3589 45.7347 66.672 46.612C67.985 47.4894 69.0084 48.7363 69.6127 50.1953C70.217 51.6543 70.3751 53.2596 70.067 54.8085C69.759 56.3573 68.9985 57.78 67.8819 58.8966C66.7653 60.0132 65.3426 60.7737 63.7938 61.0817C62.2449 61.3898 60.6396 61.2317 59.1806 60.6274C57.7216 60.0231 56.4747 58.9997 55.5973 57.6867C54.72 56.3736 54.2517 54.83 54.2517 53.2508C54.2541 51.1339 55.096 49.1044 56.5929 47.6076C58.0897 46.1107 60.1192 45.2688 62.2361 45.2664Z" fill="#4EAA40"/>
</svg>
