<svg width="20" height="21" viewBox="0 0 20 21" fill="none" xmlns="http://www.w3.org/2000/svg">
<path d="M10 0.214844C4.48 0.214844 0 4.69484 0 10.2148C0 15.7348 4.48 20.2148 10 20.2148H15V18.2148H10C5.66 18.2148 2 14.5548 2 10.2148C2 5.87484 5.66 2.21484 10 2.21484C14.34 2.21484 18 5.87484 18 10.2148V11.6448C18 12.4348 17.29 13.2148 16.5 13.2148C15.71 13.2148 15 12.4348 15 11.6448V10.2148C15 7.45484 12.76 5.21484 10 5.21484C7.24 5.21484 5 7.45484 5 10.2148C5 12.9748 7.24 15.2148 10 15.2148C11.38 15.2148 12.64 14.6548 13.54 13.7448C14.19 14.6348 15.31 15.2148 16.5 15.2148C18.47 15.2148 20 13.6148 20 11.6448V10.2148C20 4.69484 15.52 0.214844 10 0.214844ZM10 13.2148C8.34 13.2148 7 11.8748 7 10.2148C7 8.55484 8.34 7.21484 10 7.21484C11.66 7.21484 13 8.55484 13 10.2148C13 11.8748 11.66 13.2148 10 13.2148Z" fill="#F8F8F8"/>
</svg>
