<svg width="51" height="52" viewBox="0 0 51 52" fill="none" xmlns="http://www.w3.org/2000/svg">
<path d="M25.4285 16.6245C22.895 16.6245 20.4654 17.6123 18.674 19.3705C16.8826 21.1288 15.8762 23.5135 15.8762 26C15.8762 28.4865 16.8826 30.8712 18.674 32.6295C20.4654 34.3877 22.895 35.3755 25.4285 35.3755C27.9619 35.3755 30.3915 34.3877 32.1829 32.6295C33.9743 30.8712 34.9807 28.4865 34.9807 26C34.9807 23.5135 33.9743 21.1288 32.1829 19.3705C30.3915 17.6123 27.9619 16.6245 25.4285 16.6245ZM19.0603 26C19.0603 24.3423 19.7312 22.7525 20.9255 21.5804C22.1197 20.4082 23.7395 19.7497 25.4285 19.7497C27.1174 19.7497 28.7372 20.4082 29.9314 21.5804C31.1257 22.7525 31.7966 24.3423 31.7966 26C31.7966 27.6577 31.1257 29.2475 29.9314 30.4196C28.7372 31.5918 27.1174 32.2503 25.4285 32.2503C23.7395 32.2503 22.1197 31.5918 20.9255 30.4196C19.7312 29.2475 19.0603 27.6577 19.0603 26ZM19.6895 50.3362C21.5732 50.7775 23.5014 51 25.4374 51C27.3691 50.998 29.2939 50.774 31.1726 50.3325C31.6664 50.2157 32.1117 49.9525 32.4476 49.5785C32.7835 49.2044 32.9938 48.7379 33.0499 48.2424L33.4804 44.4034C33.5531 43.7169 33.8732 43.0784 34.3829 42.6029C34.8926 42.1274 35.5585 41.846 36.2607 41.8095C36.7282 41.7895 37.193 41.8758 37.621 42.0596L41.1961 43.5984C41.5069 43.7356 41.8435 43.8076 42.1844 43.8097C42.5252 43.8119 42.8627 43.7441 43.1753 43.6109C43.4899 43.4796 43.7714 43.2846 44.0032 43.0384C46.6319 40.2573 48.5944 36.935 49.7473 33.3141C49.8982 32.8338 49.8935 32.3193 49.7338 31.8417C49.5741 31.3641 49.2673 30.9469 48.8557 30.6477L45.6793 28.3476C45.3009 28.0779 44.993 27.7242 44.7807 27.3153C44.5684 26.9064 44.4577 26.4539 44.4577 25.995C44.4577 25.5361 44.5684 25.0836 44.7807 24.6747C44.993 24.2658 45.3009 23.9121 45.6793 23.6424L48.8455 21.3473C49.2582 21.0476 49.5658 20.6293 49.7255 20.1505C49.8852 19.6716 49.8893 19.1559 49.7371 18.6746C48.5839 15.0533 46.619 11.7314 43.9866 8.9529C43.6378 8.58702 43.182 8.33641 42.6819 8.23565C42.1818 8.13489 41.6622 8.18895 41.1948 8.39037L37.621 9.93545C37.2516 10.0992 36.8492 10.1855 36.4416 10.1855C35.708 10.184 35.0007 9.91688 34.4554 9.4352C33.9101 8.95353 33.5652 8.29124 33.4868 7.57533L33.0537 3.75014C32.9983 3.24808 32.7843 2.7756 32.4418 2.39881C32.0992 2.02202 31.6452 1.75977 31.1433 1.64878C29.2741 1.23921 27.3665 1.02178 25.4514 1C23.5232 1.02184 21.6025 1.23968 19.72 1.65003C19.2187 1.76039 18.765 2.02179 18.4225 2.39767C18.0799 2.77354 17.8656 3.2451 17.8096 3.74639L17.3765 7.57408C17.2948 8.29113 16.9466 8.95342 16.3984 9.43417C15.839 9.90061 15.1338 10.1653 14.4 10.1842C13.9953 10.1839 13.5951 10.1014 13.2245 9.9417L9.6583 8.39662C9.18933 8.19339 8.6675 8.1386 8.16534 8.23986C7.66318 8.34112 7.20564 8.5934 6.8563 8.96165C4.22758 11.7408 2.26504 15.0615 1.1122 18.6809C0.959903 19.1619 0.963911 19.6775 1.12367 20.1562C1.28342 20.6349 1.591 21.0529 2.00374 21.3523L5.17255 23.6474C5.73862 24.058 6.13866 24.6518 6.30203 25.3238C6.46539 25.9958 6.38157 26.7028 6.06537 27.3201C5.85509 27.7293 5.54969 28.0843 5.17382 28.3564L2.00247 30.6552C1.59009 30.9543 1.28272 31.3719 1.12298 31.8501C0.963229 32.3283 0.959017 32.8435 1.11092 33.3241C2.26172 36.947 4.22444 40.271 6.85502 43.0521C7.20254 43.4202 7.65839 43.6727 8.15906 43.7744C8.65973 43.8762 9.18026 43.822 9.64811 43.6196L13.2372 42.0733C13.6078 41.9133 14.0078 41.8308 14.4128 41.8308H14.423C15.1538 41.8317 15.8588 42.0964 16.4037 42.5745C16.9486 43.0526 17.2953 43.7107 17.3778 44.4234L17.8083 48.2449C17.8644 48.7411 18.0751 49.2083 18.4118 49.5826C18.7485 49.9569 19.1947 50.2201 19.6895 50.3362ZM29.9601 47.4048C26.9798 48.0299 23.8976 48.0299 20.9172 47.4048L20.5301 44.0772C20.3617 42.6006 19.6455 41.2365 18.5179 40.2451C17.3904 39.2537 15.9304 38.7043 14.4166 38.7019H14.4039C13.5596 38.6985 12.7239 38.8688 11.9508 39.2019L8.83553 40.5432C6.81462 38.3061 5.27267 35.6929 4.30138 32.8591L7.0588 30.859C7.83587 30.2966 8.46748 29.563 8.90276 28.7171C9.33804 27.8713 9.56481 26.937 9.56481 25.9894C9.56481 25.0418 9.33804 24.1074 8.90276 23.2616C8.46748 22.4158 7.83587 21.6821 7.0588 21.1198L4.30266 19.1197C5.27579 16.289 6.81807 13.679 8.83807 11.4443L11.9356 12.7843C12.7099 13.1214 13.5479 13.2948 14.3949 13.2931H14.4077C15.9251 13.29 17.3883 12.7388 18.5182 11.7447C19.648 10.7505 20.3656 9.38299 20.5339 7.90284L20.916 4.57768C22.4102 4.28381 23.9289 4.12646 25.4527 4.10766C26.9645 4.12641 28.4712 4.28266 29.9537 4.57643L30.3358 7.90034C30.4992 9.38042 31.2135 10.7492 32.3416 11.7444C33.4698 12.7395 34.9324 13.291 36.4492 13.2931C37.3047 13.313 38.1532 13.1375 38.9277 12.7806L42.0227 11.4418C44.0439 13.6763 45.5867 16.2869 46.5594 19.1184L43.8121 21.1098C43.0295 21.6696 42.3928 22.403 41.9538 23.2502C41.5148 24.0975 41.286 25.0345 41.286 25.985C41.286 26.9355 41.5148 27.8725 41.9538 28.7197C42.3928 29.567 43.0295 30.3004 43.8121 30.8602L46.5695 32.8603C45.5959 35.6905 44.0541 38.3003 42.0354 40.5357L38.9277 39.1982C38.043 38.8129 37.078 38.6385 36.1115 38.689C35.145 38.7396 34.2044 39.0137 33.3664 39.4891C32.5284 39.9644 31.8168 40.6275 31.2897 41.4242C30.7626 42.2209 30.4348 43.1287 30.3332 44.0734L29.9601 47.4048Z" fill="#4EAA40" stroke="#4EAA40"/>
</svg>
