<svg width="40" height="50" viewBox="0 0 40 50" fill="none" xmlns="http://www.w3.org/2000/svg">
<path fill-rule="evenodd" clip-rule="evenodd" d="M20.0108 10.6C20.9973 10.6 21.9433 10.2207 22.6409 9.54558C23.3384 8.87045 23.7302 7.95478 23.7302 7C23.7302 6.04522 23.3384 5.12954 22.6409 4.45441C21.9433 3.77928 20.9973 3.4 20.0108 3.4C19.0244 3.4 18.0783 3.77928 17.3808 4.45441C16.6833 5.12954 16.2914 6.04522 16.2914 7C16.2914 7.95478 16.6833 8.87045 17.3808 9.54558C18.0783 10.2207 19.0244 10.6 20.0108 10.6ZM20.0108 13C21.6549 13 23.2317 12.3679 24.3942 11.2426C25.5568 10.1174 26.2099 8.5913 26.2099 7C26.2099 5.4087 25.5568 3.88258 24.3942 2.75736C23.2317 1.63214 21.6549 1 20.0108 1C18.3667 1 16.79 1.63214 15.6274 2.75736C14.4649 3.88258 13.8118 5.4087 13.8118 7C13.8118 8.5913 14.4649 10.1174 15.6274 11.2426C16.79 12.3679 18.3667 13 20.0108 13Z" fill="#4EAA40" stroke="#4EAA40"/>
<path fill-rule="evenodd" clip-rule="evenodd" d="M11.7958 18.1761C12.3631 18.2806 12.8749 18.5735 13.2429 19.0042C13.6109 19.4349 13.8121 19.9764 13.8118 20.5353V45.3993C13.8118 45.7176 13.9424 46.0228 14.1749 46.2479C14.4074 46.4729 14.7227 46.5993 15.0516 46.5993H15.1594C15.4689 46.5993 15.7673 46.4873 15.9958 46.2852C16.2243 46.0832 16.3664 45.8057 16.3943 45.5073L17.5312 33.3993C17.5312 32.7628 17.7924 32.1524 18.2575 31.7023C18.7225 31.2522 19.3532 30.9993 20.0108 30.9993C20.6684 30.9993 21.2991 31.2522 21.7642 31.7023C22.2292 32.1524 22.4904 32.7628 22.4904 33.3993L23.6273 45.5073C23.6552 45.8057 23.7973 46.0832 24.0258 46.2852C24.2543 46.4873 24.5527 46.5993 24.8622 46.5993H24.97C25.2989 46.5993 25.6142 46.4729 25.8467 46.2479C26.0792 46.0228 26.2099 45.7176 26.2099 45.3993V20.5797C26.2098 20.021 26.4111 19.4798 26.7791 19.0493C27.1471 18.6189 27.6587 18.3262 28.2258 18.2217C30.4029 17.8209 32.7052 17.2653 35.2357 16.5513C35.392 16.5072 35.5378 16.4337 35.6647 16.3351C35.7917 16.2364 35.8973 16.1145 35.9756 15.9763C36.0539 15.8382 36.1033 15.6864 36.121 15.5298C36.1387 15.3731 36.1243 15.2146 36.0787 15.0633C36.0332 14.9121 35.9572 14.7709 35.8553 14.6481C35.7534 14.5252 35.6274 14.4229 35.4847 14.3472C35.3419 14.2714 35.1851 14.2236 35.0233 14.2064C34.8614 14.1893 34.6977 14.2032 34.5414 14.2473C28.7961 15.8673 24.3873 16.6185 20.0158 16.5993C15.6392 16.5801 11.2255 15.7905 5.46411 14.2437C5.30614 14.1981 5.14036 14.1835 4.97648 14.2007C4.81259 14.2178 4.65388 14.2664 4.50964 14.3437C4.3654 14.4209 4.23852 14.5252 4.13642 14.6505C4.03433 14.7758 3.95907 14.9195 3.91505 15.0732C3.87103 15.227 3.85913 15.3877 3.88004 15.546C3.90096 15.7042 3.95428 15.8569 4.03687 15.9949C4.11946 16.133 4.22968 16.2538 4.36106 16.3501C4.49245 16.4465 4.64237 16.5165 4.80206 16.5561C7.32259 17.2329 9.61996 17.7753 11.7958 18.1761ZM18.7437 46.3629C18.5261 47.1211 18.0578 47.7894 17.4105 48.2656C16.7631 48.7417 15.9725 48.9994 15.1594 48.9993H15.0516C14.0651 48.9993 13.1191 48.62 12.4215 47.9449C11.724 47.2698 11.3321 46.3541 11.3321 45.3993V20.5353C9.06824 20.1177 6.70144 19.5561 4.13876 18.8673C3.65831 18.7497 3.207 18.5402 2.81135 18.2514C2.4157 17.9625 2.08368 17.6 1.8348 17.1852C1.58592 16.7704 1.4252 16.3116 1.36208 15.8359C1.29896 15.3601 1.33471 14.8769 1.46723 14.4147C1.59975 13.9525 1.82638 13.5206 2.13379 13.1443C2.4412 12.7681 2.82319 12.4551 3.25733 12.2237C3.69148 11.9924 4.16901 11.8473 4.66188 11.7971C5.15475 11.7469 5.65302 11.7925 6.12741 11.9313C11.7933 13.4517 15.9653 14.1813 20.0269 14.1993C24.0761 14.2161 28.232 13.5273 33.8483 11.9433C34.3195 11.8037 34.8145 11.7561 35.3049 11.8032C35.7952 11.8503 36.2709 11.9913 36.7045 12.2179C37.138 12.4444 37.5207 12.7521 37.8304 13.1231C38.1401 13.494 38.3705 13.9208 38.5083 14.3787C38.6461 14.8365 38.6885 15.3164 38.6332 15.7902C38.5778 16.2641 38.4257 16.7226 38.1857 17.1391C37.9457 17.5556 37.6226 17.9218 37.2351 18.2164C36.8477 18.511 36.4036 18.7282 35.9287 18.8553C33.345 19.5849 30.9633 20.1609 28.6895 20.5797V45.3993C28.6895 46.3541 28.2976 47.2698 27.6001 47.9449C26.9026 48.62 25.9565 48.9993 24.97 48.9993H24.8622C23.934 48.9994 23.0394 48.6637 22.3539 48.0579C21.6685 47.4522 21.2418 46.6204 21.1576 45.7257L20.0207 33.6177C20.0142 33.5471 20.0109 33.4762 20.0108 33.4053C20.0108 33.4761 20.0071 33.5457 20.0009 33.6165L18.8627 45.7245C18.8427 45.9403 18.8028 46.154 18.7437 46.3629Z" fill="#4EAA40" stroke="#4EAA40"/>
</svg>
