<svg width="56" height="56" viewBox="0 0 56 56" fill="none" xmlns="http://www.w3.org/2000/svg">
<path d="M38.6017 9C31.5011 9 28.0011 16.0909 28.0011 16.0909C28.0011 16.0909 24.5011 9 17.4005 9C11.6299 9 7.06018 13.8905 7.00112 19.7261C6.88081 31.8393 16.4872 40.4536 27.0167 47.693C27.307 47.893 27.65 48 28.0011 48C28.3522 48 28.6952 47.893 28.9855 47.693C39.5139 40.4536 49.1203 31.8393 49.0011 19.7261C48.9421 13.8905 44.3724 9 38.6017 9V9Z" stroke="#4EAA40" stroke-width="4" stroke-linecap="round" stroke-linejoin="round"/>
<path d="M5 29.5H17.25L22.5 19L27.75 36.5L33 26L36.5 33H50.5" stroke="#4EAA40" stroke-width="4" stroke-linecap="round" stroke-linejoin="round"/>
</svg>
