<svg width="56" height="36" viewBox="0 0 56 36" fill="none" xmlns="http://www.w3.org/2000/svg">
<path d="M16.2438 5.17836C16.2438 3.42293 14.6855 2 12.7629 2C10.8403 2 9.28205 3.42293 9.28205 5.17836L9.28205 30.6053C9.28205 32.3607 10.8403 33.7836 12.7629 33.7836C14.6855 33.7836 16.2438 32.3607 16.2438 30.6053V5.17836ZM46.4113 5.17836C46.4113 3.42293 44.853 2 42.9304 2C41.0078 2 39.4496 3.42293 39.4496 5.17836V30.6053C39.4496 32.3607 41.0078 33.7836 42.9304 33.7836C44.853 33.7836 46.4113 32.3607 46.4113 30.6053V5.17836ZM9.28205 11.3725C9.28205 9.57184 7.72378 8.11223 5.80118 8.11223C3.87858 8.11223 2.32031 9.57184 2.32031 11.3725L2.32031 24.4111C2.32031 26.2118 3.87858 27.6714 5.80118 27.6714C7.72378 27.6714 9.28205 26.2118 9.28205 24.4111L9.28205 11.3725ZM53.373 11.3725C53.373 9.57184 51.8148 8.11223 49.8922 8.11223C47.9696 8.11223 46.4113 9.57184 46.4113 11.3725V24.4111C46.4113 26.2118 47.9696 27.6714 49.8922 27.6714C51.8148 27.6714 53.373 26.2118 53.373 24.4111V11.3725ZM16.2438 21.5591L39.4496 21.5591V14.2245L16.2438 14.2245V21.5591Z" stroke="#4EAA40" stroke-width="4" stroke-linejoin="round"/>
</svg>
