<svg width="54" height="56" viewBox="0 0 54 56" fill="none" xmlns="http://www.w3.org/2000/svg">
<path d="M36.1667 10H17.8333C17.3471 10 16.8808 10.1844 16.537 10.5126C16.1932 10.8408 16 11.2859 16 11.75V22.25C16 22.7141 16.1932 23.1592 16.537 23.4874C16.8808 23.8156 17.3471 24 17.8333 24H36.1667C36.6529 24 37.1192 23.8156 37.463 23.4874C37.8068 23.1592 38 22.7141 38 22.25V11.75C38 11.2859 37.8068 10.8408 37.463 10.5126C37.1192 10.1844 36.6529 10 36.1667 10ZM34.3333 20.5H19.6667V13.5H34.3333V20.5Z" fill="#4EAA40"/>
<path d="M36.7504 35.1406H18.2504C17.7597 35.1406 17.2892 35.3287 16.9422 35.6636C16.5953 35.9985 16.4004 36.4526 16.4004 36.9262C16.4004 37.3997 16.5953 37.8539 16.9422 38.1888C17.2892 38.5236 17.7597 38.7117 18.2504 38.7117H36.7504C37.241 38.7117 37.7116 38.5236 38.0585 38.1888C38.4055 37.8539 38.6004 37.3997 38.6004 36.9262C38.6004 36.4526 38.4055 35.9985 38.0585 35.6636C37.7116 35.3287 37.241 35.1406 36.7504 35.1406Z" fill="#4EAA40"/>
<path d="M40.45 3H10.85C10.3593 3 9.8888 3.18812 9.54185 3.52298C9.19491 3.85783 9 4.31199 9 4.78555V44.0676C9 44.5412 9.19491 44.9954 9.54185 45.3302C9.8888 45.6651 10.3593 45.8532 10.85 45.8532H14.55V51.2098C14.5514 51.4931 14.6225 51.772 14.7576 52.0235C14.8927 52.275 15.0879 52.4918 15.327 52.6561C15.5642 52.8221 15.8388 52.9312 16.1283 52.9747C16.4178 53.0182 16.7138 52.9947 16.992 52.9061L21.95 51.2991L26.908 52.9061C27.1867 52.997 27.4838 53.0224 27.7747 52.9802C28.0656 52.938 28.3419 52.8295 28.5807 52.6637C28.8194 52.4978 29.0138 52.2794 29.1476 52.0266C29.2814 51.7737 29.3508 51.4938 29.35 51.2098V45.8532H40.45C41.922 45.8532 43.3336 45.2888 44.3744 44.2843C45.4153 43.2797 46 41.9172 46 40.4965V8.35665C46 6.93598 45.4153 5.57349 44.3744 4.56893C43.3336 3.56436 41.922 3 40.45 3ZM25.65 48.7279L22.542 47.728C22.158 47.6028 21.742 47.6028 21.358 47.728L18.25 48.7279V45.8532H25.65V48.7279ZM42.3 40.4965C42.3 40.9701 42.1051 41.4243 41.7581 41.7591C41.4112 42.094 40.9407 42.2821 40.45 42.2821H12.7V6.5711H40.45C40.9407 6.5711 41.4112 6.75922 41.7581 7.09407C42.1051 7.42893 42.3 7.88309 42.3 8.35665V40.4965Z" fill="#4EAA40"/>
</svg>
