<svg width="43" height="47" viewBox="0 0 43 47" fill="none" xmlns="http://www.w3.org/2000/svg">
<path d="M18.8712 0C23.4536 0.000297637 27.8795 1.66117 31.3232 4.67282C34.7669 7.68447 36.9934 11.8412 37.5872 16.3678L42.8949 24.6844C43.082 24.9842 43.082 25.9737 42.3641 26.3952L37.7429 28.3645V35.25C37.7429 36.4965 37.2458 37.692 36.3611 38.5734C35.4763 39.4548 34.2763 39.95 33.025 39.95H28.3094L28.3071 47H7.07643V38.3191C7.07643 35.5461 6.04792 32.9212 4.14188 30.5524C1.91916 27.7876 0.525699 24.4536 0.122025 20.9344C-0.281648 17.4151 0.320894 13.8539 1.86023 10.6609C3.39957 7.46795 5.81308 4.77316 8.8227 2.88701C11.8323 1.00085 15.3156 8.73243e-05 18.8712 0ZM18.8712 4.7C16.2046 4.69989 13.5922 5.45023 11.335 6.86458C9.07772 8.27893 7.26746 10.2998 6.11273 12.6943C4.95801 15.0888 4.50578 17.7595 4.80816 20.3989C5.11054 23.0382 6.15522 25.5388 7.82186 27.6125C10.4026 30.8179 11.7943 34.4674 11.7943 38.3191V42.3H23.5892L23.5939 35.25H33.025V25.2672L36.6814 23.7068L33.0415 18.0081L32.907 16.9693C32.4605 13.5757 30.7903 10.4597 28.2078 8.20228C25.6254 5.94484 22.3069 4.70005 18.8712 4.7ZM17.621 13.5431L18.8712 14.7886L20.1215 13.5431C20.5022 13.1502 20.9577 12.8368 21.4613 12.6212C21.9649 12.4055 22.5066 12.292 23.0547 12.2871C23.6028 12.2823 24.1465 12.3862 24.6538 12.5929C25.1612 12.7996 25.6222 13.1048 26.0099 13.4909C26.3976 13.877 26.7042 14.3361 26.9119 14.8414C27.1195 15.3468 27.2241 15.8883 27.2194 16.4344C27.2148 16.9804 27.101 17.5201 26.8848 18.0219C26.6685 18.5237 26.3541 18.9775 25.9599 19.357L18.8712 26.4211L11.7826 19.357C11.3883 18.9775 11.0739 18.5237 10.8577 18.0219C10.6414 17.5201 10.5277 16.9804 10.523 16.4344C10.5184 15.8883 10.6229 15.3468 10.8306 14.8414C11.0383 14.3361 11.3449 13.877 11.7326 13.4909C12.1203 13.1048 12.5812 12.7996 13.0886 12.5929C13.596 12.3862 14.1396 12.2823 14.6878 12.2871C15.2359 12.292 15.7776 12.4055 16.2812 12.6212C16.7848 12.8368 17.2402 13.1502 17.621 13.5431Z" fill="#4EAA40"/>
</svg>
