<svg width="29" height="29" viewBox="0 0 29 29" fill="none" xmlns="http://www.w3.org/2000/svg">
<path d="M9.72414 26H12.2069V22.2941H19.6552V19.8235H12.2069V17.3529H17.7931C21.2156 17.3529 24 14.5822 24 11.1765C24 7.77076 21.2156 5 17.7931 5H10.9655C10.6363 5 10.3205 5.13015 10.0877 5.36181C9.85493 5.59347 9.72414 5.90767 9.72414 6.23529V14.8824H6V17.3529H9.72414V19.8235H6V22.2941H9.72414V26ZM12.2069 7.47059H17.7931C19.8463 7.47059 21.5172 9.13329 21.5172 11.1765C21.5172 13.2196 19.8463 14.8824 17.7931 14.8824H12.2069V7.47059Z" fill="#4EAA40"/>
</svg>
