<svg width="58" height="58" viewBox="0 0 58 58" fill="none" xmlns="http://www.w3.org/2000/svg">
<path d="M29 0C23.2644 0 17.6575 1.70082 12.8885 4.88738C8.11945 8.07394 4.40245 12.6031 2.20751 17.9022C0.0125652 23.2012 -0.561731 29.0322 0.55724 34.6576C1.67621 40.2831 4.43819 45.4504 8.49391 49.5061C12.5496 53.5618 17.7169 56.3238 23.3424 57.4428C28.9678 58.5617 34.7988 57.9874 40.0978 55.7925C45.3969 53.5976 49.9261 49.8806 53.1126 45.1115C56.2992 40.3425 58 34.7357 58 29C58 25.1917 57.2499 21.4206 55.7925 17.9022C54.3351 14.3837 52.199 11.1868 49.5061 8.4939C46.8132 5.801 43.6163 3.66488 40.0978 2.20749C36.5794 0.750107 32.8083 0 29 0ZM38.222 43.9408C38.1138 44.2117 37.9488 44.4563 37.7382 44.6582C37.5276 44.8601 37.2763 45.0146 37.001 45.1113C36.7258 45.208 36.433 45.2447 36.1424 45.2189C35.8518 45.193 35.5701 45.1053 35.3162 44.9616L27.4427 38.8426L22.3909 43.5058C22.2736 43.5924 22.1365 43.6481 21.9921 43.6679C21.8477 43.6876 21.7006 43.6708 21.5644 43.6189L22.533 34.9508L22.562 34.9769L22.5823 34.8058C22.5823 34.8058 36.7488 21.9066 37.3259 21.3585C37.9117 20.8104 37.7174 20.6915 37.7174 20.6915C37.7522 20.0245 36.6705 20.6915 36.6705 20.6915L17.8988 32.7671L10.0833 30.1049C10.0833 30.1049 8.88271 29.6757 8.76961 28.7274C8.65071 27.7878 10.121 27.2774 10.121 27.2774L41.2003 14.9292C41.2003 14.9292 43.7552 13.7924 43.7552 15.6774L38.222 43.9408Z" fill="#009BBD"/>
</svg>
