<svg width="54" height="58" viewBox="0 0 54 58" fill="none" xmlns="http://www.w3.org/2000/svg">
<path d="M47.9104 5.64775C46.498 4.32253 40.7818 0.0976691 28.0372 0.0410356C28.0372 0.0410356 13.0127 -0.876427 5.6951 5.9649C1.62482 10.1105 0.190211 16.1929 0.0345176 23.7252C-0.121176 31.2574 -0.310233 45.3705 13.0461 49.1989H13.0572L13.0461 55.0435C13.0461 55.0435 12.9571 57.4108 14.4918 57.8865C16.3379 58.4755 17.4277 56.6745 19.196 54.7377C20.1635 53.673 21.498 52.1099 22.51 50.9206C31.6515 51.7021 38.6688 49.9125 39.4695 49.652C41.3156 49.0403 51.7582 47.6811 53.4486 33.5681C55.2057 19.0019 52.6034 9.80465 47.9104 5.64775ZM49.4562 32.5034C48.0216 44.2831 39.5585 45.0307 38.0016 45.5404C37.3343 45.7556 31.1622 47.3187 23.4108 46.809C23.4108 46.809 17.6279 53.9108 15.8263 55.7571C15.2369 56.3574 14.5919 56.3008 14.603 55.1115C14.603 54.3299 14.6475 45.4045 14.6475 45.4045C14.6364 45.4045 14.6364 45.4045 14.6475 45.4045C3.32633 42.2103 3.99359 30.1927 4.11592 23.9064C4.23825 17.6201 5.40596 12.4664 8.85346 9.00046C15.0479 3.28047 27.8036 4.12998 27.8036 4.12998C38.5799 4.17528 43.74 7.48268 44.9411 8.5927C48.9113 12.0587 50.9353 20.3498 49.4562 32.5034ZM33.998 23.3514C34.0425 24.3255 32.6079 24.3934 32.5634 23.4193C32.4411 20.9275 31.2956 19.7155 28.938 19.5796C27.9816 19.523 28.0705 18.0618 29.0158 18.1185C32.1186 18.2884 33.8423 20.1006 33.998 23.3514ZM36.2556 24.6313C36.3668 19.8288 33.4197 16.0683 27.8259 15.6492C26.8806 15.5813 26.9807 14.1201 27.926 14.1881C34.3761 14.6638 37.8125 19.1832 37.6902 24.6653C37.6791 25.6394 36.2333 25.5941 36.2556 24.6313ZM41.4824 26.1491C41.4936 27.1232 40.0478 27.1345 40.0478 26.1604C39.9811 16.9291 33.9424 11.9001 26.6137 11.8435C25.6684 11.8321 25.6684 10.3823 26.6137 10.3823C34.8098 10.4389 41.4046 16.2042 41.4824 26.1491ZM40.2258 37.2606V37.2832C39.0247 39.4353 36.7783 41.8139 34.4651 41.055L34.4429 41.021C32.0963 40.3528 26.5692 37.4531 23.0772 34.6215C21.2756 33.1716 19.6297 31.4613 18.3619 29.8189C17.2164 28.3578 16.0599 26.6248 14.9366 24.5407C12.5679 20.1799 12.0452 18.2317 12.0452 18.2317C11.3001 15.8758 13.6244 13.5878 15.7485 12.3645H15.7707C16.7938 11.8208 17.7725 12.002 18.4286 12.8062C18.4286 12.8062 19.8076 14.4826 20.397 15.3094C20.9531 16.0796 21.6982 17.3143 22.0874 18.0052C22.7658 19.2398 22.3432 20.4971 21.676 21.0181L20.3414 22.1055C19.6631 22.6605 19.752 23.6912 19.752 23.6912C19.752 23.6912 21.7316 31.3141 29.127 33.2396C29.127 33.2396 30.139 33.3302 30.684 32.6393L31.7516 31.2801C32.2631 30.6005 33.4976 30.1701 34.7098 30.861C36.3445 31.8011 38.4242 33.2622 39.8032 34.5875C40.5816 35.2331 40.7596 36.2185 40.2258 37.2606Z" fill="#7A0385"/>
</svg>
