<svg width="40" height="40" viewBox="0 0 40 40" fill="none" xmlns="http://www.w3.org/2000/svg">
<path d="M26.1462 0H13.8742C2.66625 0 0.000244141 2.666 0.000244141 13.854V26.126C0.000244141 37.332 2.64625 40 13.8542 40H26.1262C37.3322 40 40.0002 37.354 40.0002 26.146V13.874C40.0002 2.666 37.3542 0 26.1462 0ZM32.2922 28.54H29.3742C28.2702 28.54 27.9382 27.646 25.9582 25.666C24.2302 24 23.5002 23.792 23.0622 23.792C22.4582 23.792 22.2922 23.958 22.2922 24.792V27.416C22.2922 28.126 22.0622 28.542 20.2082 28.542C18.4089 28.4211 16.6641 27.8744 15.1174 26.9471C13.5708 26.0197 12.2666 24.7382 11.3122 23.208C9.04658 20.388 7.47013 17.0783 6.70825 13.542C6.70825 13.104 6.87425 12.708 7.70825 12.708H10.6242C11.3742 12.708 11.6442 13.042 11.9382 13.812C13.3542 17.98 15.7702 21.604 16.7502 21.604C17.1262 21.604 17.2902 21.438 17.2902 20.5V16.208C17.1662 14.25 16.1262 14.084 16.1262 13.376C16.1396 13.1893 16.2252 13.0151 16.3648 12.8904C16.5045 12.7657 16.6872 12.7002 16.8742 12.708H21.4582C22.0842 12.708 22.2922 13.02 22.2922 13.77V19.562C22.2922 20.188 22.5622 20.396 22.7502 20.396C23.1262 20.396 23.4162 20.188 24.1042 19.5C25.582 17.6979 26.7893 15.6902 27.6882 13.54C27.7801 13.2817 27.954 13.0606 28.1833 12.9104C28.4126 12.7602 28.6848 12.6891 28.9582 12.708H31.8762C32.7502 12.708 32.9362 13.146 32.7502 13.77C31.6892 16.1469 30.3764 18.4031 28.8342 20.5C28.5202 20.98 28.3942 21.23 28.8342 21.792C29.1242 22.23 30.1462 23.084 30.8342 23.896C31.8341 24.8933 32.6643 26.0471 33.2922 27.312C33.5422 28.124 33.1242 28.542 32.2922 28.542V28.54Z" fill="#4EAA40"/>
</svg>
