<svg width="40" height="41" viewBox="0 0 40 41" fill="none" xmlns="http://www.w3.org/2000/svg">
<path d="M26.1462 0.489258H13.8742C2.66625 0.489258 0.000244141 3.14907 0.000244141 14.3111V26.5546C0.000244141 37.7346 2.64625 40.3964 13.8542 40.3964H26.1262C37.3322 40.3964 40.0002 37.7566 40.0002 26.5746V14.3311C40.0002 3.14907 37.3542 0.489258 26.1462 0.489258ZM32.2922 28.963H29.3742C28.2702 28.963 27.9382 28.0711 25.9582 26.0957C24.2302 24.4336 23.5002 24.2261 23.0622 24.2261C22.4582 24.2261 22.2922 24.3917 22.2922 25.2237V27.8416C22.2922 28.55 22.0622 28.965 20.2082 28.965C18.4089 28.8444 16.6641 28.299 15.1174 27.3738C13.5708 26.4486 12.2666 25.17 11.3122 23.6434C9.04658 20.8299 7.47013 17.5279 6.70825 13.9998C6.70825 13.5629 6.87425 13.1678 7.70825 13.1678H10.6242C11.3742 13.1678 11.6442 13.501 11.9382 14.2692C13.3542 18.4275 15.7702 22.0431 16.7502 22.0431C17.1262 22.0431 17.2902 21.8775 17.2902 20.9417V16.6596C17.1662 14.7062 16.1262 14.5406 16.1262 13.8342C16.1396 13.6479 16.2252 13.4741 16.3648 13.3497C16.5045 13.2253 16.6872 13.16 16.8742 13.1678H21.4582C22.0842 13.1678 22.2922 13.479 22.2922 14.2273V20.0059C22.2922 20.6304 22.5622 20.8379 22.7502 20.8379C23.1262 20.8379 23.4162 20.6304 24.1042 19.944C25.582 18.1461 26.7893 16.143 27.6882 13.9978C27.7801 13.7402 27.954 13.5196 28.1833 13.3697C28.4126 13.2198 28.6848 13.1489 28.9582 13.1678H31.8762C32.7502 13.1678 32.9362 13.6048 32.7502 14.2273C31.6892 16.5987 30.3764 18.8496 28.8342 20.9417C28.5202 21.4206 28.3942 21.67 28.8342 22.2307C29.1242 22.6677 30.1462 23.5197 30.8342 24.3298C31.8341 25.3248 32.6643 26.476 33.2922 27.7379C33.5422 28.548 33.1242 28.965 32.2922 28.965V28.963Z" fill="white"/>
</svg>
