<svg width="57" height="58" viewBox="0 0 57 58" fill="none" xmlns="http://www.w3.org/2000/svg">
<path d="M41.8059 34.829C41.2332 34.5393 37.5108 32.8015 36.9381 32.5119C36.3654 32.2222 35.7927 32.2222 35.22 32.8015C34.6473 33.3808 33.502 35.1186 32.9293 35.6979C32.643 36.2772 32.0703 36.2771 31.4976 35.9875C29.4932 35.1186 27.4888 33.96 25.7708 32.5119C24.339 31.0637 22.9073 29.3258 21.762 27.588C21.4756 27.0087 21.762 26.4295 22.0483 26.1398C22.3347 25.8502 22.621 25.2709 23.1937 24.9813C23.48 24.6916 23.7664 24.1124 23.7664 23.8227C24.0527 23.5331 24.0527 22.9538 23.7664 22.6642C23.48 22.3745 22.0483 18.8989 21.4756 17.4507C21.1893 15.4232 20.6166 15.4232 20.0439 15.4232H18.6122C18.0395 15.4232 17.1805 16.0025 16.8942 16.2921C15.1761 18.03 14.3171 20.0574 14.3171 22.3745C14.6034 24.9813 15.4625 27.588 17.1805 29.9051C20.3303 34.5393 24.339 38.3046 29.2069 40.6217C30.6386 41.201 31.7839 41.7803 33.2156 42.0699C34.6474 42.6492 36.0791 42.6492 37.7971 42.3596C39.8015 42.0699 41.5195 40.6217 42.6649 38.8839C43.2376 37.7253 43.2376 36.5668 42.9513 35.4082L41.8059 34.829ZM48.9644 8.47191C37.7971 -2.82397 19.7576 -2.82397 8.59025 8.47191C-0.572684 17.7403 -2.29073 31.9326 4.00878 43.2285L0 58L15.1761 53.9451C19.4712 56.2622 24.0527 57.4207 28.6342 57.4207C44.383 57.4207 56.982 44.6767 56.982 28.7466C57.2683 21.216 54.1186 13.975 48.9644 8.47191ZM41.2332 49.0212C37.5108 51.3383 33.2156 52.7865 28.6342 52.7865C24.339 52.7865 20.3303 51.628 16.6078 49.6005L15.7488 49.0212L6.8722 51.3383L9.16293 42.6492L8.59025 41.7803C1.71805 30.1948 5.15415 15.7129 16.3215 8.47191C27.4888 1.23096 41.8059 4.99625 48.6781 16.0025C55.5503 27.2984 52.4005 42.0699 41.2332 49.0212Z" fill="#4EAA40"/>
</svg>
