<svg width="50" height="41" viewBox="0 0 50 41" fill="none" xmlns="http://www.w3.org/2000/svg">
<path d="M48.955 5.9406C48.38 3.79559 46.685 2.10452 44.535 1.53086C40.635 0.488282 25 0.488281 25 0.488281C25 0.488281 9.365 0.488282 5.465 1.53086C3.315 2.10452 1.62 3.79559 1.045 5.9406C-1.19209e-07 9.83155 0 20.4419 0 20.4419C0 20.4419 -1.19209e-07 31.0522 1.045 34.9431C1.62 37.0881 3.315 38.7792 5.465 39.3529C9.365 40.3954 25 40.3954 25 40.3954C25 40.3954 40.635 40.3954 44.535 39.3529C46.6875 38.7792 48.38 37.0881 48.955 34.9431C50 31.0522 50 20.4419 50 20.4419C50 20.4419 50 9.83155 48.955 5.9406ZM20 29.0818V11.802L35 20.4419L20 29.0818Z" fill="white"/>
</svg>
