<svg width="116" height="102" viewBox="0 0 116 102" fill="none" xmlns="http://www.w3.org/2000/svg">
<path d="M72 84C95.196 84 114 65.196 114 42C114 18.804 95.196 0 72 0C48.804 0 30 18.804 30 42C30 65.196 48.804 84 72 84Z" fill="#4EAA40"/>
<path d="M68.9025 5.34334C68.9025 4.93281 69.2645 4.16309 68.3854 4.16309C68.1441 4.23151 67.6408 4.38887 67.5581 4.47098C67.4547 4.5736 67.1961 5.34334 67.1444 5.70255C67.0928 6.06175 66.8859 8.31963 66.6273 9.19199C66.3688 10.0643 65.1277 11.1933 64.8174 11.3985C64.5071 11.6038 64.5588 11.9631 64.6106 12.3223C64.6623 12.6814 65.2828 14.067 65.4379 14.6314C65.5621 15.083 65.4896 15.7091 65.4379 15.9656L64.9725 19.0959L64.4554 23.1498L63.99 23.7142L64.2486 25.6643L64.4554 28.3326L64.714 31.4629L64.8174 33.8233V35.6707L64.5071 39.5707L64.2486 45.2667C64.0762 45.2324 63.659 45.1538 63.3695 45.1128C63.0075 45.0614 61.5078 44.9075 60.939 44.9075C60.3701 44.9075 57.9915 44.9075 57.371 45.0101C56.7504 45.1128 53.8546 44.8049 53.4927 44.7536C53.1306 44.7023 52.4584 44.7536 51.8896 45.0101C51.3208 45.2667 51.2691 45.4206 50.5451 46.0364C49.9659 46.529 49.959 49.0127 50.028 50.193L50.1314 55.1193C50.2521 55.2047 50.5554 55.4476 50.8037 55.735C51.1139 56.0942 51.0105 56.0942 51.3725 57.685C51.7345 59.2758 51.4759 60.8666 51.3725 61.9955C51.2691 63.1244 50.9587 63.6889 50.3899 64.6639C49.8211 65.6389 48.2698 66.7165 48.0112 66.8705C47.7527 67.0244 47.339 66.9218 46.4599 67.0758C45.5808 67.2297 45.4257 67.2297 45.012 67.3836C44.5983 67.5376 44.7534 67.7428 44.7017 67.8967C44.6499 68.0507 45.0637 68.4099 45.4257 68.6152C45.7876 68.8205 46.977 68.7178 47.339 68.7178C47.701 68.7178 48.4767 68.7692 48.7869 68.7178C49.0972 68.6665 50.4416 68.4099 50.5968 68.4099C50.752 68.4099 52.1998 68.4099 52.7169 68.6152C53.2341 68.8205 53.7512 68.7692 54.5786 68.6152C55.4059 68.4612 55.2509 67.2297 55.1991 66.7165C55.1474 66.2033 54.682 65.2284 54.5786 65.0231C54.4751 64.8178 54.4751 63.3811 54.4751 60.8666C54.4751 58.855 54.9233 56.7784 55.1474 55.9916L55.4059 55.8376L55.3026 51.1166L58.7671 52.81C59.6635 53.1521 61.6216 53.898 62.2835 54.1442C62.9455 54.3906 63.8693 54.4863 64.2486 54.5034C64.4726 54.8285 65.0346 55.6221 65.4896 56.1968C66.0584 56.9153 67.1961 57.2232 67.8166 57.3771C68.4372 57.531 69.8334 57.5824 70.0919 57.4284C70.3505 57.2745 71.1261 57.2232 72.1087 57.2232C73.0912 57.2232 72.9878 57.3258 73.6083 57.5824C74.2289 57.8389 74.3323 57.9929 74.9529 58.66C75.5733 59.3271 75.9354 60.1995 76.349 60.8666C76.7627 61.5336 77.9003 62.8165 78.4174 63.2783C78.9345 63.7402 79.4 64.356 79.6068 64.5612C79.7723 64.7255 79.6758 64.835 79.6068 64.8691C79.2104 64.8863 78.2727 64.9512 77.6936 65.0744C76.9696 65.2284 76.0388 65.485 75.2631 65.6902C74.4874 65.8955 74.1254 65.8955 73.7635 65.8955C73.4015 65.8955 70.5056 65.7928 69.5748 65.8955C68.6441 65.9981 67.4547 66.4086 67.1961 66.4599C66.9376 66.5112 65.2828 66.5625 64.8691 66.6138C64.4554 66.6651 63.0593 66.8705 62.6455 67.0244C62.2318 67.1784 61.9216 67.0244 61.1459 67.0244C60.3702 67.0244 60.4219 66.9731 58.3018 67.2297C56.1816 67.4862 55.8197 68.2559 55.6645 68.4099C55.5094 68.5639 56.1299 68.6665 56.5436 68.6152C56.9573 68.5639 57.6295 68.8205 58.4569 68.9231C59.2842 69.0257 60.3702 69.077 61.1459 69.077C61.9216 69.077 62.4904 68.9231 63.5246 68.8205C64.5588 68.7178 66.317 68.9231 67.4547 69.077C68.5923 69.231 69.73 69.0257 70.9194 68.9231C72.1087 68.8205 73.6083 68.8718 74.9529 68.9231C76.2973 68.9744 78.9863 69.3336 81.2616 69.2823C83.5369 69.231 84.9848 69.077 86.2776 68.9231C87.5704 68.7692 89.07 69.231 90.5697 69.6415C92.0693 70.052 92.845 70.4626 95.0168 70.7191C97.1887 70.9757 98.8434 70.3086 100.033 69.6415C101.222 68.9744 102.205 67.4862 102.773 66.6651C103.342 65.8442 103.239 64.9717 103.187 63.8942C103.135 62.8165 102.567 61.7903 102.36 61.431C102.153 61.0718 101.274 60.4561 101.067 60.3021C100.86 60.1482 100.602 60.1995 100.24 60.0969C99.8776 59.9942 99.7225 59.7889 99.4639 59.5836C99.2054 59.3784 98.378 59.4297 98.1712 59.4297C97.9643 59.4297 98.016 58.9679 97.7575 59.2758C97.5506 59.5221 97.1197 59.5836 96.9301 59.5836H96.3095C96.0855 59.3441 95.5855 58.8242 95.3788 58.66C95.1719 58.4958 95.0167 58.7284 94.9651 58.8653L94.7582 59.1731L94.6548 59.4297H94.3963L93.8791 59.1731H93.4654L93.1552 59.4297C92.9138 59.3613 92.3485 59.2655 92.0175 59.4297C91.6038 59.635 91.397 60.4561 91.5004 60.4561C91.4176 60.9076 91.7762 62.0468 92.0175 62.56L89.8457 62.1495C89.7939 61.4652 89.6491 59.8505 89.4836 58.8653C89.2768 57.6337 88.5011 57.4284 88.2943 57.2232C88.0875 57.0179 86.7947 56.3508 86.3293 56.0942C85.9569 55.889 85.4501 55.4955 85.2433 55.3245L83.1232 53.4772C82.1061 52.81 80.0102 51.4656 79.762 51.4246C79.4516 51.3732 79.2965 51.1679 78.6759 50.7574C78.0555 50.3469 76.0904 48.9101 75.1079 48.3969C74.3219 47.9864 73.4014 47.747 73.0395 47.6785C72.9705 46.943 72.8223 45.3385 72.7809 44.8049C72.7292 44.1377 71.7984 38.0826 71.5915 37.3641C71.3846 36.6457 70.9193 34.6444 70.8158 33.8233C70.7125 33.0023 70.5056 30.5391 70.2987 29.6155L69.5748 26.3826C69.5748 26.3826 69.5403 24.3129 69.6782 23.6116L69.0577 23.0471C69.006 22.4998 68.8819 21.3127 68.7991 20.9432C68.6957 20.4814 68.7991 17.5051 68.7991 16.1709C68.7991 14.8367 69.1612 14.067 69.1612 12.9893C69.1612 11.9118 69.2129 10.1157 69.1612 9.19199C69.1095 8.26832 69.0577 8.16568 68.9025 7.49858C68.7473 6.83149 68.9025 5.75386 68.9025 5.34334Z" fill="white"/>
<path fill-rule="evenodd" clip-rule="evenodd" d="M22.2217 16.7554C20.1301 16.8725 18.5906 17.1065 17.6031 17.4576C16.6735 17.8087 16.0344 18.4816 15.6859 19.4763C15.3373 20.4711 15.163 22.0803 15.163 24.3038V67.8386C15.163 70.0622 15.3373 71.6714 15.6859 72.6662C16.0344 73.6609 16.6735 74.3338 17.6031 74.6849C18.5906 74.9775 20.1301 75.1237 22.2217 75.1237H28.5831C32.185 75.1237 34.9156 74.6263 36.7747 73.6317C38.6917 72.5783 40.0861 70.9106 40.9575 68.6287C41.829 66.3466 42.468 63.0405 42.8747 58.7104H44.879C44.7047 60.5244 44.6175 62.9235 44.6175 65.9077C44.6175 69.243 44.8209 72.988 45.2275 77.1425C41.2771 76.9669 34.625 76.8792 25.2716 76.8792C14.1173 76.8792 5.69339 76.9669 0 77.1425V75.3871C2.09145 75.27 3.60194 75.036 4.53147 74.6849C5.5191 74.3338 6.18719 73.6609 6.53577 72.6662C6.88434 71.6714 7.05863 70.0622 7.05863 67.8386V24.3038C7.05863 22.0803 6.88434 20.4711 6.53577 19.4763C6.18719 18.4816 5.5191 17.8087 4.53147 17.4576C3.60194 17.1065 2.09145 16.8725 0 16.7554V15C2.44002 15.1756 6.15815 15.2633 11.1544 15.2633C15.8021 15.2633 19.4911 15.1756 22.2217 15V16.7554ZM94.7156 15C94.309 19.1545 94.1056 22.8995 94.1056 26.2348C94.1056 29.1605 94.1928 31.5596 94.3671 33.4321H92.3627C91.898 28.9264 91.317 25.5912 90.6199 23.4261C89.9227 21.2025 88.7027 19.5934 86.9598 18.5987C85.2169 17.5454 82.5446 17.0187 78.9426 17.0187H73.4526C71.3611 17.0187 69.8216 17.1943 68.834 17.5454C67.9044 17.8379 67.2654 18.4816 66.9168 19.4763C66.5683 20.4711 66.394 22.0803 66.394 24.3038V45.8957H72.7554C74.7887 45.8957 76.3574 45.4276 77.4612 44.4914C78.565 43.4966 79.2912 42.3555 79.6398 41.0683C80.0464 39.7225 80.366 38.0548 80.5983 36.0653L80.8598 34.3098H82.8641C82.6898 36.7674 82.6027 39.5176 82.6027 42.5604V46.7735C82.6027 49.7576 82.777 53.9122 83.1255 59.2371H81.1212C81.0632 58.8274 80.8888 57.4231 80.5983 55.024C80.3079 52.5664 79.4945 50.7231 78.1584 49.4944C76.8803 48.2655 75.0793 47.6511 72.7554 47.6511H66.394V67.8386C66.394 70.0622 66.6263 71.6714 67.0911 72.6662C67.5559 73.6609 68.3692 74.3338 69.5311 74.6849C70.693 75.036 72.5811 75.27 75.1955 75.3871V77.1425C72.1745 76.9669 67.9044 76.8792 62.3854 76.8792C57.3891 76.8792 53.671 76.9669 51.231 77.1425V75.3871C53.3224 75.27 54.8329 75.036 55.7624 74.6849C56.7501 74.3338 57.4181 73.6609 57.7668 72.6662C58.1153 71.6714 58.2896 70.0622 58.2896 67.8386V24.3038C58.2896 22.0803 58.1153 20.4711 57.7668 19.4763C57.4181 18.4816 56.7501 17.8087 55.7624 17.4576C54.8329 17.1065 53.3224 16.8725 51.231 16.7554V15C56.9243 15.1756 65.3483 15.2633 76.5026 15.2633C85.0427 15.2633 91.1137 15.1756 94.7156 15ZM99.9736 92.552V101.803H101.922V92.552H104.237V91.1434H101.922V90.2173C101.922 89.5146 102.103 88.9892 102.466 88.6411C102.837 88.2865 103.437 88.1092 104.268 88.1092C105.057 88.1092 105.888 88.2733 106.761 88.6016L107.086 87.0649C105.892 86.6642 104.904 86.4639 104.122 86.4639C102.802 86.4639 101.779 86.7956 101.052 87.4589C100.333 88.1222 99.9736 89.0482 99.9736 90.237V91.1434H98.1824V92.552H99.9736ZM106.101 101.803H108.049V91.1434H106.101V101.803ZM34.3384 96.5914C34.3384 98.2202 33.9404 99.5303 33.1443 100.522C32.3482 101.507 31.2798 102 29.9391 102C28.5075 102 27.4007 101.524 26.6185 100.571L26.5243 101.803H24.7435V86.671H26.6814V92.3159C27.4635 91.4029 28.5424 90.9465 29.9181 90.9465C31.2938 90.9465 32.3727 91.4359 33.1548 92.4144C33.9439 93.3929 34.3384 94.7327 34.3384 96.4338V96.5914ZM32.4006 96.3845C32.4006 95.1432 32.1457 94.1843 31.636 93.5079C31.1262 92.8314 30.3929 92.4932 29.4362 92.4932C28.1583 92.4932 27.24 93.0515 26.6814 94.168V98.7784C27.2749 99.8949 28.2002 100.453 29.4572 100.453C30.3859 100.453 31.1087 100.115 31.6254 99.4385C32.1422 98.7619 32.4006 97.744 32.4006 96.3845ZM11.3777 100.256H4.15005V87.4591H2.12842V101.803H11.3777V100.256ZM14.3211 100.581C15.2848 101.527 16.5348 102 18.0711 102C19.9706 102 21.3951 101.313 22.3448 99.9407L21.1612 99.0738C20.805 99.5072 20.3895 99.8553 19.9147 100.118C19.4398 100.381 18.8603 100.512 18.1759 100.512C17.2122 100.512 16.4161 100.19 15.7876 99.5467C15.1661 98.8965 14.8414 98.0459 14.8134 96.9951H22.4915V96.2365C22.4915 94.5356 22.0829 93.2287 21.2659 92.3158C20.4489 91.4028 19.3036 90.9464 17.8302 90.9464C16.9293 90.9464 16.0914 91.1828 15.3163 91.6557C14.5481 92.122 13.9475 92.7722 13.5146 93.6063C13.0886 94.4338 12.8756 95.3762 12.8756 96.4336V96.7686C12.8756 98.3579 13.3575 99.6287 14.3211 100.581ZM15.861 93.2516C16.3917 92.7131 17.0481 92.4438 17.8302 92.4438C18.6403 92.4438 19.2827 92.6999 19.7576 93.2122C20.2325 93.7179 20.4978 94.4338 20.5536 95.3598V95.4978H14.8763C15.002 94.5323 15.3302 93.7836 15.861 93.2516ZM37.7428 100.581C38.7064 101.527 39.9565 102 41.4928 102C43.3922 102 44.8167 101.313 45.7665 99.9407L44.5828 99.0738C44.2266 99.5072 43.8112 99.8553 43.3363 100.118C42.8615 100.381 42.2819 100.512 41.5975 100.512C40.6338 100.512 39.8377 100.19 39.2093 99.5467C38.5878 98.8965 38.263 98.0459 38.2351 96.9951H45.9131V96.2365C45.9131 94.5356 45.5046 93.2287 44.6876 92.3158C43.8706 91.4028 42.7252 90.9464 41.2518 90.9464C40.351 90.9464 39.513 91.1828 38.7378 91.6557C37.9697 92.122 37.3691 92.7722 36.9362 93.6063C36.5102 94.4338 36.2972 95.3762 36.2972 96.4336V96.7686C36.2972 98.3579 36.7791 99.6287 37.7428 100.581ZM39.2826 93.2516C39.8133 92.7131 40.4697 92.4438 41.2518 92.4438C42.0619 92.4438 42.7043 92.6999 43.1791 93.2122C43.654 93.7179 43.9194 94.4338 43.9753 95.3598V95.4978H38.2979C38.4237 94.5323 38.7519 93.7836 39.2826 93.2516ZM47.6938 96.3845C47.6938 94.7492 48.1058 93.4356 48.9298 92.4439C49.7539 91.4457 50.8328 90.9465 52.1666 90.9465C53.4933 90.9465 54.5443 91.3734 55.3194 92.2273V86.671H57.2573V101.803H55.4766L55.3823 100.66C54.6071 101.553 53.5282 102 52.1456 102C50.8328 102 49.7608 101.494 48.9298 100.483C48.1058 99.4713 47.6938 98.1512 47.6938 96.5224V96.3845ZM49.6317 96.5914C49.6317 97.7998 49.897 98.7456 50.4277 99.4285C50.9585 100.112 51.6917 100.453 52.6275 100.453C53.8564 100.453 54.7538 99.9343 55.3194 98.8966V94.0005C54.7398 92.9956 53.8495 92.4932 52.6483 92.4932C51.6986 92.4932 50.9585 92.838 50.4277 93.5276C49.897 94.2172 49.6317 95.2385 49.6317 96.5914ZM61.2273 100.581C62.1909 101.527 63.441 102 64.9773 102C66.8767 102 68.3012 101.313 69.251 99.9407L68.0673 99.0738C67.7113 99.5072 67.2957 99.8553 66.8208 100.118C66.346 100.381 65.7664 100.512 65.082 100.512C64.1183 100.512 63.3223 100.19 62.6938 99.5467C62.0723 98.8965 61.7476 98.0459 61.7196 96.9951H69.3976V96.2365C69.3976 94.5356 68.9892 93.2287 68.1721 92.3158C67.355 91.4028 66.2098 90.9464 64.7363 90.9464C63.8356 90.9464 62.9975 91.1828 62.2224 91.6557C61.4543 92.122 60.8537 92.7722 60.4207 93.6063C59.9948 94.4338 59.7817 95.3762 59.7817 96.4336V96.7686C59.7817 98.3579 60.2636 99.6287 61.2273 100.581ZM62.7671 93.2516C63.2978 92.7131 63.9542 92.4438 64.7363 92.4438C65.5464 92.4438 66.1889 92.6999 66.6637 93.2122C67.1386 93.7179 67.4039 94.4338 67.4598 95.3598V95.4978H61.7825C61.9082 94.5323 62.2364 93.7836 62.7671 93.2516ZM75.2426 99.3291L78.0498 91.1426H80.0296L75.9653 101.802H74.4884L70.3822 91.1426H72.362L75.2426 99.3291ZM87.7827 100.692C87.8499 101.226 87.9373 101.597 88.0448 101.805H90V101.649C89.7446 101.076 89.617 100.306 89.617 99.3365V94.4781C89.5901 93.4115 89.2206 92.5758 88.5084 91.9708C87.7962 91.3595 86.8118 91.0538 85.5555 91.0538C84.7626 91.0538 84.0335 91.1969 83.3684 91.4831C82.7099 91.7693 82.1858 92.1594 81.7961 92.6538C81.4132 93.1415 81.2217 93.6489 81.2217 94.1757H83.0962C83.0962 93.7139 83.3214 93.3204 83.7715 92.9953C84.2216 92.67 84.7794 92.5074 85.4446 92.5074C86.2038 92.5074 86.7782 92.6961 87.168 93.0733C87.5577 93.444 87.7525 93.9448 87.7525 94.5757V95.4049H85.9384C84.3729 95.4049 83.1567 95.7106 82.29 96.322C81.43 96.9268 81 97.7788 81 98.8779C81 99.782 81.3426 100.53 82.0279 101.122C82.72 101.707 83.6036 102 84.6785 102C85.8813 102 86.916 101.564 87.7827 100.692ZM86.6136 99.9901C86.0895 100.283 85.5353 100.429 84.9507 100.429C84.3393 100.429 83.8387 100.27 83.449 99.951C83.0594 99.6324 82.8645 99.1901 82.8645 98.6243C82.8645 97.3301 84.0067 96.6829 86.2912 96.6829H87.7525V98.8487C87.5173 99.317 87.1378 99.6974 86.6136 99.9901ZM97.4282 96.4535H92.3165V94.9659H97.4282V96.4535ZM113.832 88.5616V91.1427H115.948V92.5513H113.832V99.1616C113.832 99.5886 113.926 99.9104 114.114 100.127C114.303 100.337 114.624 100.442 115.078 100.442C115.302 100.442 115.609 100.403 116 100.324V101.802C115.49 101.933 114.994 101.999 114.512 101.999C113.647 101.999 112.994 101.753 112.554 101.26C112.113 100.767 111.894 100.068 111.894 99.1616V92.5513H109.831V91.1427H111.894V88.5616H113.832Z" fill="#444B59"/>
</svg>
