<svg width="65" height="58" viewBox="0 0 65 58" fill="none" xmlns="http://www.w3.org/2000/svg">
<path d="M2.28403 56.979H6.33666V57.8848H1.15047V49.4848H2.28403V56.979Z" fill="white"/>
<path d="M10.0898 58.0001C9.22833 58.0001 8.52744 57.7232 7.98709 57.1694C7.44673 56.6117 7.17656 55.8675 7.17656 54.9367V54.7405C7.17656 54.1213 7.29598 53.5694 7.53483 53.0848C7.7776 52.5963 8.11434 52.2155 8.54506 51.9425C8.97969 51.6656 9.44956 51.5271 9.95467 51.5271C10.7809 51.5271 11.423 51.7944 11.8811 52.329C12.3393 52.8636 12.5683 53.629 12.5683 54.6252V55.0694H8.26313C8.2788 55.6848 8.46087 56.1828 8.80936 56.5636C9.16176 56.9405 9.60814 57.129 10.1485 57.129C10.5322 57.129 10.8572 57.0521 11.1235 56.8982C11.3897 56.7444 11.6227 56.5405 11.8224 56.2867L12.4861 56.7944C11.9536 57.5982 11.1548 58.0001 10.0898 58.0001ZM9.95467 52.404C9.51612 52.404 9.14806 52.5617 8.85047 52.8771C8.55289 53.1886 8.36885 53.6271 8.29837 54.1925H11.4817V54.1117C11.4504 53.5694 11.3016 53.1502 11.0354 52.854C10.7691 52.554 10.4089 52.404 9.95467 52.404Z" fill="white"/>
<path d="M19.2111 54.8328C19.2111 55.7867 18.9879 56.554 18.5416 57.1348C18.0952 57.7117 17.4961 58.0001 16.7443 58.0001C15.9416 58.0001 15.321 57.7213 14.8824 57.1636L14.8296 57.8848H13.8311V49.0233H14.9177V52.329C15.3562 51.7944 15.9612 51.5271 16.7326 51.5271C17.5039 51.5271 18.1089 51.8136 18.5474 52.3867C18.9899 52.9598 19.2111 53.7444 19.2111 54.7405V54.8328ZM18.1245 54.7117C18.1245 53.9848 17.9816 53.4232 17.6958 53.0271C17.41 52.6309 16.9988 52.4329 16.4624 52.4329C15.7458 52.4329 15.2309 52.7598 14.9177 53.4136V56.1136C15.2505 56.7675 15.7693 57.0944 16.4741 57.0944C16.9949 57.0944 17.4002 56.8963 17.6899 56.5001C17.9797 56.104 18.1245 55.5078 18.1245 54.7117Z" fill="white"/>
<path d="M23.2226 58.0001C22.3612 58.0001 21.6603 57.7232 21.12 57.1694C20.5796 56.6117 20.3094 55.8675 20.3094 54.9367V54.7405C20.3094 54.1213 20.4289 53.5694 20.6677 53.0848C20.9105 52.5963 21.2472 52.2155 21.6779 51.9425C22.1126 51.6656 22.5824 51.5271 23.0876 51.5271C23.9137 51.5271 24.5559 51.7944 25.014 52.329C25.4721 52.8636 25.7012 53.629 25.7012 54.6252V55.0694H21.396C21.4117 55.6848 21.5938 56.1828 21.9422 56.5636C22.2946 56.9405 22.741 57.129 23.2814 57.129C23.6651 57.129 23.9901 57.0521 24.2564 56.8982C24.5226 56.7444 24.7556 56.5405 24.9553 56.2867L25.619 56.7944C25.0865 57.5982 24.2877 58.0001 23.2226 58.0001ZM23.0876 52.404C22.649 52.404 22.2809 52.5617 21.9834 52.8771C21.6858 53.1886 21.5017 53.6271 21.4313 54.1925H24.6146V54.1117C24.5833 53.5694 24.4345 53.1502 24.1683 52.854C23.902 52.554 23.5418 52.404 23.0876 52.404Z" fill="white"/>
<path d="M26.6997 54.7117C26.6997 53.754 26.9307 52.9848 27.3927 52.404C27.8548 51.8194 28.4597 51.5271 29.2076 51.5271C29.9516 51.5271 30.5409 51.7771 30.9755 52.2771V49.0233H32.0621V57.8848H31.0636L31.0107 57.2155C30.5761 57.7386 29.9712 58.0001 29.1959 58.0001C28.4597 58.0001 27.8587 57.704 27.3927 57.1117C26.9307 56.5194 26.6997 55.7463 26.6997 54.7925V54.7117ZM27.7863 54.8328C27.7863 55.5405 27.9351 56.0944 28.2326 56.4944C28.5302 56.8944 28.9414 57.0944 29.466 57.0944C30.1552 57.0944 30.6583 56.7905 30.9755 56.1828V53.3155C30.6505 52.7271 30.1513 52.4329 29.4778 52.4329C28.9453 52.4329 28.5302 52.6348 28.2326 53.0386C27.9351 53.4425 27.7863 54.0405 27.7863 54.8328Z" fill="white"/>
<path d="M36.3908 58.0001C35.5293 58.0001 34.8284 57.7232 34.2881 57.1694C33.7477 56.6117 33.4776 55.8675 33.4776 54.9367V54.7405C33.4776 54.1213 33.597 53.5694 33.8358 53.0848C34.0786 52.5963 34.4154 52.2155 34.8461 51.9425C35.2807 51.6656 35.7506 51.5271 36.2557 51.5271C37.0819 51.5271 37.724 51.7944 38.1821 52.329C38.6403 52.8636 38.8693 53.629 38.8693 54.6252V55.0694H34.5641C34.5798 55.6848 34.7619 56.1828 35.1104 56.5636C35.4628 56.9405 35.9091 57.129 36.4495 57.129C36.8332 57.129 37.1582 57.0521 37.4245 56.8982C37.6907 56.7444 37.9237 56.5405 38.1234 56.2867L38.7871 56.7944C38.2546 57.5982 37.4558 58.0001 36.3908 58.0001ZM36.2557 52.404C35.8171 52.404 35.4491 52.5617 35.1515 52.8771C34.8539 53.1886 34.6699 53.6271 34.5994 54.1925H37.7828V54.1117C37.7514 53.5694 37.6026 53.1502 37.3364 52.854C37.0701 52.554 36.7099 52.404 36.2557 52.404Z" fill="white"/>
<path d="M42.1467 56.4367L43.7207 51.6425H44.8308L42.5519 57.8848H41.7238L39.4214 51.6425H40.5315L42.1467 56.4367Z" fill="white"/>
<path d="M49.7057 57.8848C49.6431 57.7617 49.5922 57.5425 49.553 57.2271C49.0479 57.7424 48.4449 58.0001 47.744 58.0001C47.1175 58.0001 46.6026 57.8271 46.1993 57.4809C45.7999 57.1309 45.6002 56.6886 45.6002 56.154C45.6002 55.504 45.8508 55.0002 46.352 54.6425C46.8571 54.2809 47.5659 54.1002 48.4782 54.1002H49.5354V53.6098C49.5354 53.2367 49.4218 52.9405 49.1947 52.7213C48.9676 52.4982 48.6329 52.3867 48.1904 52.3867C47.8027 52.3867 47.4778 52.4829 47.2154 52.6752C46.9531 52.8675 46.8219 53.1002 46.8219 53.3732H45.7294C45.7294 53.0617 45.841 52.7617 46.0642 52.4732C46.2913 52.1809 46.5967 51.9502 46.9805 51.7809C47.3681 51.6117 47.793 51.5271 48.255 51.5271C48.9872 51.5271 49.5609 51.7079 49.9759 52.0694C50.391 52.4271 50.6063 52.9213 50.622 53.5521V56.4251C50.622 56.9982 50.6964 57.454 50.8452 57.7924V57.8848H49.7057ZM47.9026 57.0713C48.2433 57.0713 48.5663 56.9848 48.8717 56.8117C49.1771 56.6386 49.3984 56.4136 49.5354 56.1367V54.8559H48.6838C47.3525 54.8559 46.6868 55.2386 46.6868 56.004C46.6868 56.3386 46.8004 56.6001 47.0275 56.7886C47.2546 56.9771 47.5463 57.0713 47.9026 57.0713Z" fill="white"/>
<path d="M54.5865 54.7521H51.7203V53.8809H54.5865V54.7521Z" fill="white"/>
<path d="M56.0137 57.8848V52.4675H55.0094V51.6425H56.0137V51.1117C56.0137 50.4156 56.2154 49.8732 56.6187 49.4848C57.0259 49.0963 57.5996 48.9021 58.3396 48.9021C58.7781 48.9021 59.3322 49.0194 60.0018 49.254L59.8197 50.154C59.3302 49.9617 58.8643 49.8656 58.4218 49.8656C57.9559 49.8656 57.6191 49.9694 57.4116 50.1771C57.208 50.3809 57.1062 50.6886 57.1062 51.1002V51.6425H58.4042V52.4675H57.1062V57.8848H56.0137ZM60.5421 57.8848H59.4497V51.6425H60.5421V57.8848Z" fill="white"/>
<path d="M63.7842 50.1309V51.6425H64.9706V52.4675H63.7842V56.3386C63.7842 56.5886 63.8371 56.7771 63.9428 56.904C64.0485 57.0271 64.2286 57.0886 64.4832 57.0886C64.6085 57.0886 64.7807 57.0655 65 57.0194V57.8848C64.7142 57.9617 64.4362 58.0001 64.166 58.0001C63.6805 58.0001 63.3144 57.8559 63.0677 57.5675C62.821 57.279 62.6977 56.8694 62.6977 56.3386V52.4675H61.5406V51.6425H62.6977V50.1309H63.7842Z" fill="white"/>
<ellipse cx="40.7979" cy="24.1667" rx="24.2021" ry="24.1667" fill="#4EAA40"/>
<path d="M38.8685 3.51829C38.8685 3.2835 39.0713 2.84326 38.5788 2.84326C38.4437 2.88239 38.1618 2.9724 38.1154 3.01936C38.0575 3.07806 37.9127 3.51829 37.8837 3.72374C37.8547 3.92918 37.7389 5.22055 37.594 5.71948C37.4492 6.21842 36.754 6.8641 36.5802 6.9815C36.4064 7.09889 36.4353 7.30434 36.4643 7.50978C36.4933 7.71523 36.8409 8.50765 36.9278 8.83049C36.9973 9.08877 36.9568 9.44683 36.9278 9.59357L36.6671 11.3839L36.3774 13.7025L36.1167 14.0253L36.2615 15.1406L36.3774 16.6667L36.5222 18.457L36.5802 19.8071V20.8637L36.4064 23.0942L36.2615 26.352C36.165 26.3324 35.9313 26.2874 35.7691 26.2639C35.5663 26.2346 34.7263 26.1465 34.4077 26.1465C34.089 26.1465 32.7566 26.1465 32.409 26.2052C32.0614 26.2639 30.4392 26.0878 30.2364 26.0585C30.0337 26.0291 29.6571 26.0585 29.3385 26.2052C29.0198 26.352 28.9909 26.44 28.5853 26.7922C28.2609 27.0739 28.257 28.4944 28.2957 29.1695L28.3536 31.987C28.4212 32.0359 28.5911 32.1748 28.7302 32.3392C28.904 32.5446 28.846 32.5446 29.0488 33.4545C29.2516 34.3643 29.1067 35.2741 29.0488 35.9198C28.9909 36.5655 28.8171 36.8883 28.4984 37.4459C28.1798 38.0036 27.3108 38.6199 27.166 38.708C27.0211 38.796 26.7894 38.7373 26.297 38.8254C25.8045 38.9134 25.7176 38.9134 25.4859 39.0015C25.2541 39.0895 25.341 39.2069 25.3121 39.2949C25.2831 39.383 25.5149 39.5884 25.7176 39.7058C25.9204 39.8232 26.5866 39.7645 26.7894 39.7645C26.9922 39.7645 27.4267 39.7939 27.6005 39.7645C27.7743 39.7352 28.5274 39.5884 28.6143 39.5884C28.7012 39.5884 29.5123 39.5884 29.8019 39.7058C30.0916 39.8232 30.3813 39.7939 30.8447 39.7058C31.3082 39.6178 31.2213 38.9134 31.1923 38.6199C31.1634 38.3264 30.9027 37.7688 30.8447 37.6514C30.7868 37.534 30.7868 36.7122 30.7868 35.2741C30.7868 34.1236 31.0379 32.936 31.1634 32.4859L31.3082 32.3979L31.2503 29.6978L33.1911 30.6663C33.6932 30.8619 34.79 31.2885 35.1608 31.4294C35.5316 31.5702 36.0491 31.625 36.2615 31.6348C36.3871 31.8207 36.7018 32.2746 36.9568 32.6033C37.2754 33.0142 37.9127 33.1903 38.2603 33.2784C38.6079 33.3664 39.39 33.3958 39.5348 33.3077C39.6796 33.2197 40.1141 33.1903 40.6645 33.1903C41.2149 33.1903 41.1569 33.249 41.5045 33.3958C41.8521 33.5425 41.9101 33.6306 42.2577 34.0121C42.6053 34.3936 42.8081 34.8926 43.0398 35.2741C43.2715 35.6556 43.9088 36.3894 44.1985 36.6535C44.4881 36.9177 44.7488 37.2699 44.8647 37.3872C44.9574 37.4812 44.9033 37.5438 44.8647 37.5633C44.6426 37.5731 44.1174 37.6103 43.7929 37.6807C43.3874 37.7688 42.866 37.9155 42.4315 38.0329C41.997 38.1503 41.7942 38.1503 41.5914 38.1503C41.3887 38.1503 39.7665 38.0916 39.2451 38.1503C38.7237 38.209 38.0575 38.4438 37.9127 38.4732C37.7678 38.5025 36.8409 38.5319 36.6091 38.5612C36.3774 38.5906 35.5953 38.708 35.3636 38.796C35.1318 38.8841 34.958 38.796 34.5235 38.796C34.089 38.796 34.118 38.7667 32.9304 38.9134C31.7427 39.0602 31.54 39.5004 31.4531 39.5884C31.3661 39.6765 31.7138 39.7352 31.9455 39.7058C32.1772 39.6765 32.5538 39.8232 33.0173 39.8819C33.4807 39.9406 34.089 39.97 34.5235 39.97C34.958 39.97 35.2767 39.8819 35.856 39.8232C36.4353 39.7645 37.4202 39.8819 38.0575 39.97C38.6948 40.058 39.332 39.9406 39.9983 39.8819C40.6645 39.8232 41.5045 39.8526 42.2577 39.8819C43.0108 39.9113 44.5171 40.1167 45.7916 40.0874C47.0662 40.058 47.8773 39.97 48.6014 39.8819C49.3256 39.7939 50.1656 40.058 51.0057 40.2928C51.8457 40.5276 52.2802 40.7624 53.4968 40.9091C54.7134 41.0559 55.6404 40.6744 56.3066 40.2928C56.9728 39.9113 57.5232 39.0602 57.8418 38.5906C58.1605 38.121 58.1025 37.622 58.0736 37.0057C58.0446 36.3894 57.726 35.8024 57.6101 35.5969C57.4942 35.3915 57.0018 35.0393 56.8859 34.9513C56.77 34.8632 56.6252 34.8926 56.4224 34.8339C56.2197 34.7752 56.1328 34.6578 55.9879 34.5404C55.8431 34.423 55.3796 34.4523 55.2638 34.4523C55.1479 34.4523 55.1769 34.1882 55.032 34.3643C54.9162 34.5052 54.6748 34.5404 54.5686 34.5404H54.221C54.0954 34.4034 53.8154 34.106 53.6996 34.0121C53.5837 33.9182 53.4968 34.0512 53.4678 34.1295L53.352 34.3056L53.294 34.4523H53.1492L52.8595 34.3056H52.6278L52.454 34.4523C52.3188 34.4132 52.0021 34.3584 51.8167 34.4523C51.585 34.5697 51.4691 35.0393 51.527 35.0393C51.4807 35.2976 51.6815 35.9491 51.8167 36.2426L50.6001 36.0078C50.5711 35.6165 50.49 34.693 50.3973 34.1295C50.2815 33.4251 49.847 33.3077 49.7311 33.1903C49.6152 33.0729 48.8911 32.6914 48.6304 32.5446C48.4218 32.4272 48.1379 32.2022 48.0221 32.1044L46.8344 31.0478C46.2647 30.6663 45.0906 29.8973 44.9516 29.8739C44.7778 29.8445 44.6909 29.7271 44.3433 29.4923C43.9957 29.2575 42.8949 28.4357 42.3446 28.1423C41.9043 27.9075 41.3887 27.7705 41.1859 27.7314C41.1473 27.3107 41.0642 26.393 41.041 26.0878C41.0121 25.7063 40.4907 22.2431 40.3748 21.8322C40.2589 21.4213 39.9982 20.2767 39.9403 19.8071C39.8824 19.3375 39.7665 17.9287 39.6506 17.4005L39.2451 15.5515C39.2451 15.5515 39.2258 14.3677 39.303 13.9666L38.9554 13.6438C38.9265 13.3307 38.8569 12.6518 38.8106 12.4404C38.7527 12.1763 38.8106 10.474 38.8106 9.71097C38.8106 8.94789 39.0134 8.50765 39.0134 7.89132C39.0134 7.27499 39.0424 6.24777 39.0134 5.71948C38.9844 5.1912 38.9555 5.1325 38.8685 4.75096C38.7816 4.36942 38.8685 3.75309 38.8685 3.51829Z" fill="#444B59"/>
<path d="M12.5508 9.5252C11.3696 9.59159 10.5 9.72438 9.94222 9.92356C9.41722 10.1227 9.05628 10.5045 8.85941 11.0688C8.66253 11.6332 8.56409 12.5461 8.56409 13.8076V38.5059C8.56409 39.7674 8.66253 40.6803 8.85941 41.2447C9.05628 41.809 9.41722 42.1908 9.94222 42.3899C10.5 42.5559 11.3696 42.6389 12.5508 42.6389H16.1438C18.1782 42.6389 19.7204 42.3567 20.7704 41.7924C21.8532 41.1949 22.6407 40.2487 23.1329 38.9541C23.6251 37.6594 23.986 35.7838 24.2157 33.3272H25.3477C25.2493 34.3563 25.2001 35.7174 25.2001 37.4104C25.2001 39.3026 25.3149 41.4272 25.5446 43.7842C23.3134 43.6846 19.5563 43.6348 14.2735 43.6348C7.97346 43.6348 3.21564 43.6846 0 43.7842V42.7883C1.18125 42.7219 2.03438 42.5891 2.55938 42.3899C3.1172 42.1908 3.49454 41.809 3.69142 41.2447C3.88829 40.6803 3.98673 39.7674 3.98673 38.5059V13.8076C3.98673 12.5461 3.88829 11.6332 3.69142 11.0688C3.49454 10.5045 3.1172 10.1227 2.55938 9.92356C2.03438 9.72438 1.18125 9.59159 0 9.5252V8.5293C1.37813 8.62889 3.47814 8.67868 6.30002 8.67868C8.92503 8.67868 11.0086 8.62889 12.5508 8.5293V9.5252Z" fill="white"/>
<path d="M53.4956 8.5293C53.2659 10.8863 53.1511 13.0109 53.1511 14.9031C53.1511 16.5629 53.2003 17.924 53.2987 18.9863H52.1667C51.9042 16.4301 51.576 14.5379 51.1823 13.3096C50.7885 12.0481 50.0995 11.1352 49.1151 10.5709C48.1307 9.97335 46.6213 9.67458 44.587 9.67458H41.4862C40.3049 9.67458 39.4354 9.77417 38.8776 9.97335C38.3526 10.1393 37.9916 10.5045 37.7947 11.0688C37.5979 11.6332 37.4994 12.5461 37.4994 13.8076V26.0572H41.0924C42.2409 26.0572 43.1268 25.7916 43.7502 25.2604C44.3737 24.6961 44.7838 24.0488 44.9807 23.3184C45.2104 22.5549 45.3909 21.6088 45.5221 20.4801L45.6698 19.4842H46.8018C46.7034 20.8785 46.6542 22.4387 46.6542 24.1649V26.5551C46.6542 28.2481 46.7526 30.6051 46.9495 33.626H45.8174C45.7846 33.3936 45.6862 32.5969 45.5221 31.2358C45.3581 29.8416 44.8987 28.7959 44.144 28.0988C43.4221 27.4016 42.4049 27.0531 41.0924 27.0531H37.4994V38.5059C37.4994 39.7674 37.6307 40.6803 37.8932 41.2447C38.1557 41.809 38.6151 42.1908 39.2713 42.3899C39.9276 42.5891 40.994 42.7219 42.4705 42.7883V43.7842C40.7643 43.6846 38.3526 43.6348 35.2354 43.6348C32.4135 43.6348 30.3135 43.6846 28.9353 43.7842V42.7883C30.1166 42.7219 30.9697 42.5891 31.4947 42.3899C32.0525 42.1908 32.4299 41.809 32.6268 41.2447C32.8236 40.6803 32.9221 39.7674 32.9221 38.5059V13.8076C32.9221 12.5461 32.8236 11.6332 32.6268 11.0688C32.4299 10.5045 32.0525 10.1227 31.4947 9.92356C30.9697 9.72438 30.1166 9.59159 28.9353 9.5252V8.5293C32.151 8.62889 36.9088 8.67868 43.2088 8.67868C48.0323 8.67868 51.4612 8.62889 53.4956 8.5293Z" fill="white"/>
</svg>
