<svg width="137" height="107" viewBox="0 0 137 107" fill="none" xmlns="http://www.w3.org/2000/svg">
<path d="M60.8429 79.608C60.8429 87.8827 58.2216 94.588 52.9789 99.724C47.7362 104.575 41.1138 107 33.1118 107C23.4542 107 15.4522 103.719 9.10574 97.156C3.03525 90.5933 0 81.1773 0 68.908C0 55.7827 3.58711 42.9427 10.7613 30.388C18.2115 17.548 28.5589 7.41867 41.8036 0L51.3233 14.98C44.149 20.116 38.3545 25.8227 33.9396 32.1C29.8006 38.3773 27.0413 45.6533 25.6616 53.928C28.145 52.7867 31.0423 52.216 34.3535 52.216C42.0796 52.216 48.426 54.784 53.3927 59.92C58.3595 65.056 60.8429 71.6187 60.8429 79.608ZM137 79.608C137 87.8827 134.379 94.588 129.136 99.724C123.893 104.575 117.271 107 109.269 107C99.6113 107 91.6093 103.719 85.2628 97.156C79.1924 90.5933 76.1571 81.1773 76.1571 68.908C76.1571 55.7827 79.7442 42.9427 86.9184 30.388C94.3686 17.548 104.716 7.41867 117.961 0L127.48 14.98C120.306 20.116 114.512 25.8227 110.097 32.1C105.958 38.3773 103.198 45.6533 101.819 53.928C104.302 52.7867 107.199 52.216 110.511 52.216C118.237 52.216 124.583 54.784 129.55 59.92C134.517 65.056 137 71.6187 137 79.608Z" fill="#B5B7BC"/>
</svg>
