<svg width="124" height="94" viewBox="0 0 124 94" fill="none" xmlns="http://www.w3.org/2000/svg">
<path d="M68.9305 69.936C68.9305 77.2053 71.3031 83.096 76.0483 87.608C80.7936 91.8693 86.7875 94 94.0302 94C102.771 94 110.014 91.1173 115.758 85.352C121.253 79.5867 124 71.3147 124 60.536C124 49.0053 120.753 37.7253 114.26 26.696C107.517 15.416 98.1511 6.51734 86.1631 0L77.5468 13.16C84.0403 17.672 89.285 22.6853 93.281 28.2C97.0272 33.7147 99.5247 40.1067 100.773 47.376C98.5257 46.3733 95.9033 45.872 92.9063 45.872C85.9134 45.872 80.1692 48.128 75.6737 52.64C71.1783 57.152 68.9305 62.9173 68.9305 69.936ZM2.2832e-06 69.936C2.2832e-06 77.2053 2.37261 83.096 7.11783 87.608C11.8631 91.8693 17.857 94 25.0997 94C33.8409 94 41.0836 91.1173 46.8278 85.352C52.3223 79.5867 55.0695 71.3147 55.0695 60.536C55.0695 49.0053 51.8228 37.7253 45.3293 26.696C38.5861 15.416 29.2206 6.51734 17.2326 0L8.61632 13.16C15.1098 17.672 20.3545 22.6853 24.3505 28.2C28.0967 33.7147 30.5942 40.1067 31.8429 47.376C29.5952 46.3733 26.9728 45.872 23.9758 45.872C16.9829 45.872 11.2387 48.128 6.74321 52.64C2.24774 57.152 2.2832e-06 62.9173 2.2832e-06 69.936Z" fill="#444B59"/>
</svg>
